<?xml version="1.0" encoding="utf-8"?>
<!-- Generator: Adobe Illustrator 27.5.0, SVG Export Plug-In . SVG Version: 6.00 Build 0)  -->
<svg version="1.1" xmlns="http://www.w3.org/2000/svg" xmlns:xlink="http://www.w3.org/1999/xlink" x="0px" y="0px"
	 viewBox="0 0 500 500" style="enable-background:new 0 0 500 500;" xml:space="preserve">
<g id="BACKGROUND">
</g>
<g id="OBJECTS">
	<polygon style="fill-rule:evenodd;clip-rule:evenodd;fill:#BFBFBF;" points="64.145,300.909 224.778,394.654 276.78,364.629
		116.15,270.886 	"/>
	<polygon style="fill-rule:evenodd;clip-rule:evenodd;fill:#BFBFBF;" points="191.775,183.849 352.408,277.594 404.41,247.569
		243.78,153.825 	"/>
	<g>
		<g>
			<g>
				<polygon style="fill-rule:evenodd;clip-rule:evenodd;fill:#12150E;" points="157.562,328.579 146.353,335.05 146.353,345.319
					157.562,338.846 				"/>
				<path style="fill-rule:evenodd;clip-rule:evenodd;fill:#12150E;" d="M157.767,352.348c-1.127,0.648-2.687,0.554-4.407-0.439
					c-1.724-0.994-3.28-2.702-4.408-4.653c-1.126-1.951-1.828-4.157-1.828-6.143c0-1.989,0.7-3.387,1.828-4.038
					c1.655-0.955,2.765-1.597,4.427-2.554c1.128-0.654,2.687-0.559,4.408,0.435c1.721,0.994,3.282,2.701,4.407,4.655
					c1.127,1.954,1.826,4.159,1.826,6.145c0,1.988-0.698,3.387-1.826,4.037C160.517,350.757,159.43,351.39,157.767,352.348z"/>
				<path style="fill-rule:evenodd;clip-rule:evenodd;fill:#27302E;" d="M153.358,337.509c3.443,1.988,6.236,6.827,6.236,10.802
					c0,3.975-2.793,5.586-6.236,3.597c-3.442-1.987-6.235-6.822-6.235-10.797C147.123,337.136,149.916,335.522,153.358,337.509z"/>
				<linearGradient id="SVGID_1_" gradientUnits="userSpaceOnUse" x1="151.1107" y1="346.407" x2="146.0932" y2="353.8458">
					<stop  offset="0" style="stop-color:#272C26"/>
					<stop  offset="1" style="stop-color:#313834"/>
				</linearGradient>
				<path style="fill-rule:evenodd;clip-rule:evenodd;fill:url(#SVGID_1_);" d="M153.358,337.509
					c3.085,1.781,5.648,5.853,6.148,9.54l-12.293-7.098C147.711,336.84,150.273,335.728,153.358,337.509z"/>
				<path style="fill-rule:evenodd;clip-rule:evenodd;fill:#DDD4C6;" d="M153.358,341.03c1.76,1.014,3.187,3.49,3.187,5.521
					c0,2.031-1.427,2.852-3.187,1.838c-1.758-1.014-3.185-3.487-3.185-5.519C150.173,340.84,151.6,340.015,153.358,341.03z"/>

					<linearGradient id="SVGID_00000146480932849227537040000017376922473878299309_" gradientUnits="userSpaceOnUse" x1="151.7678" y1="340.4848" x2="160.3356" y2="355.3246">
					<stop  offset="0" style="stop-color:#B6A89F"/>
					<stop  offset="1" style="stop-color:#A0938A"/>
				</linearGradient>
				<path style="fill-rule:evenodd;clip-rule:evenodd;fill:url(#SVGID_00000146480932849227537040000017376922473878299309_);" d="
					M153.358,341.03c1.393,0.803,2.576,2.52,3.009,4.207l-6.017-3.474C150.784,340.576,151.967,340.227,153.358,341.03z"/>

					<linearGradient id="SVGID_00000172440830744394846190000014255150296364041863_" gradientUnits="userSpaceOnUse" x1="153.359" y1="334.2669" x2="153.359" y2="361.2396">
					<stop  offset="0" style="stop-color:#B6A89F"/>
					<stop  offset="1" style="stop-color:#A0938A"/>
				</linearGradient>
				<path style="fill-rule:evenodd;clip-rule:evenodd;fill:url(#SVGID_00000172440830744394846190000014255150296364041863_);" d="
					M153.358,341.852c1.368,0.789,2.475,2.71,2.475,4.287s-1.107,2.214-2.475,1.427c-1.366-0.788-2.473-2.708-2.473-4.284
					C150.885,341.704,151.992,341.064,153.358,341.852L153.358,341.852z M153.358,342.714c-0.954-0.549-1.727-0.104-1.727,0.999
					s0.773,2.441,1.727,2.993c0.955,0.55,1.729,0.104,1.729-0.998C155.087,344.607,154.313,343.263,153.358,342.714z"/>

					<linearGradient id="SVGID_00000075859210246020308580000001421365423016600468_" gradientUnits="userSpaceOnUse" x1="149.9363" y1="349.6734" x2="152.86" y2="344.3989">
					<stop  offset="0" style="stop-color:#B6A89F"/>
					<stop  offset="1" style="stop-color:#A0938A"/>
				</linearGradient>
				<path style="fill-rule:evenodd;clip-rule:evenodd;fill:url(#SVGID_00000075859210246020308580000001421365423016600468_);" d="
					M153.358,341.852c0.992,0.572,1.847,1.742,2.242,2.943l-0.866-0.501c-0.315-0.66-0.814-1.256-1.375-1.579
					c-0.559-0.322-1.058-0.301-1.373-0.007l-0.867-0.501C151.513,341.46,152.367,341.279,153.358,341.852z"/>
				<polygon style="fill-rule:evenodd;clip-rule:evenodd;fill:#3F4642;" points="156.209,327.771 160.871,329.129 167.528,332.972
					167.573,334.333 				"/>
				<polygon style="fill-rule:evenodd;clip-rule:evenodd;fill:#63645E;" points="153.045,328.782 144.66,333.626 157.974,336.445
					165.082,330.451 158.425,326.608 				"/>
				<path style="fill-rule:evenodd;clip-rule:evenodd;fill:#3F4642;" d="M144.66,333.626l5.38-2.176l6.656,3.844l5.381,8.388v10.704
					l-1.702-0.981v-5.316c0-4.46-3.14-9.901-7.006-12.136h-0.002l-0.001-0.001c-3.866-2.229-7.005-0.414-7.005,4.045l-0.008,5.322
					l-1.702-0.984L144.66,333.626z"/>

					<linearGradient id="SVGID_00000034807650144353755080000008922827374907298467_" gradientUnits="userSpaceOnUse" x1="157.748" y1="333.4937" x2="152.5105" y2="342.5653">
					<stop  offset="0" style="stop-color:#272C26"/>
					<stop  offset="1" style="stop-color:#313834"/>
				</linearGradient>
				<path style="fill-rule:evenodd;clip-rule:evenodd;fill:url(#SVGID_00000034807650144353755080000008922827374907298467_);" d="
					M144.66,333.626l5.38-2.176l6.656,3.844l5.381,8.388v4.851l-1.717-0.99c-0.24-4.348-3.28-9.445-6.99-11.59h-0.002l-0.001-0.001
					c-3.709-2.139-6.749-0.554-6.989,3.517l-1.722-0.994L144.66,333.626z"/>
				<polygon style="fill-rule:evenodd;clip-rule:evenodd;fill:#63645E;" points="165.082,330.451 156.696,335.294 150.04,331.45
					158.425,326.608 				"/>
				<polygon style="fill-rule:evenodd;clip-rule:evenodd;fill:#4F5651;" points="165.082,330.451 156.696,335.294 162.077,343.682
					170.462,338.84 				"/>

					<linearGradient id="SVGID_00000117639198789160017150000000097276865455653010_" gradientUnits="userSpaceOnUse" x1="163.8264" y1="346.5276" x2="173.5575" y2="346.8674">
					<stop  offset="0" style="stop-color:#272C26"/>
					<stop  offset="1" style="stop-color:#313834"/>
				</linearGradient>

					<polygon style="fill-rule:evenodd;clip-rule:evenodd;fill:url(#SVGID_00000117639198789160017150000000097276865455653010_);" points="
					170.462,349.543 162.077,354.386 162.077,343.682 170.462,338.84 				"/>
			</g>
			<g>
				<polygon style="fill-rule:evenodd;clip-rule:evenodd;fill:#12150E;" points="85.015,287.297 74.095,290.546 75.788,302.238
					85.292,298.119 				"/>
				<g>
					<path style="fill-rule:evenodd;clip-rule:evenodd;fill:#12150E;" d="M88.551,310.462c-1.127,0.648-2.687,0.554-4.407-0.439
						c-1.724-0.994-3.28-2.702-4.408-4.653c-1.126-1.951-1.828-4.157-1.828-6.143c0-1.989,0.7-3.387,1.828-4.038
						c1.655-0.955,2.765-1.597,4.427-2.554c1.128-0.654,2.687-0.559,4.408,0.435c1.721,0.994,3.282,2.701,4.407,4.655
						c1.127,1.954,1.826,4.159,1.826,6.145c0,1.988-0.698,3.387-1.826,4.037C91.301,308.872,90.214,309.504,88.551,310.462z"/>
					<path style="fill-rule:evenodd;clip-rule:evenodd;fill:#27302E;" d="M84.142,295.624c3.443,1.988,6.236,6.827,6.236,10.802
						c0,3.975-2.793,5.586-6.236,3.597c-3.442-1.987-6.235-6.822-6.235-10.797C77.907,295.251,80.7,293.636,84.142,295.624z"/>

						<linearGradient id="SVGID_00000097502300864233410610000013643840299222408075_" gradientUnits="userSpaceOnUse" x1="81.8949" y1="304.5217" x2="76.8774" y2="311.9605">
						<stop  offset="0" style="stop-color:#272C26"/>
						<stop  offset="1" style="stop-color:#313834"/>
					</linearGradient>
					<path style="fill-rule:evenodd;clip-rule:evenodd;fill:url(#SVGID_00000097502300864233410610000013643840299222408075_);" d="
						M84.142,295.624c3.085,1.781,5.648,5.853,6.148,9.54l-12.293-7.098C78.496,294.954,81.057,293.843,84.142,295.624z"/>
					<path style="fill-rule:evenodd;clip-rule:evenodd;fill:#DDD4C6;" d="M84.142,299.144c1.76,1.014,3.187,3.49,3.187,5.521
						s-1.427,2.852-3.187,1.838c-1.758-1.014-3.185-3.487-3.185-5.519C80.957,298.955,82.384,298.13,84.142,299.144z"/>

						<linearGradient id="SVGID_00000080927454311158823320000013463355575541749908_" gradientUnits="userSpaceOnUse" x1="82.552" y1="298.5994" x2="91.1197" y2="313.4392">
						<stop  offset="0" style="stop-color:#B6A89F"/>
						<stop  offset="1" style="stop-color:#A0938A"/>
					</linearGradient>
					<path style="fill-rule:evenodd;clip-rule:evenodd;fill:url(#SVGID_00000080927454311158823320000013463355575541749908_);" d="
						M84.142,299.144c1.393,0.803,2.576,2.52,3.009,4.207l-6.017-3.474C81.568,298.69,82.751,298.342,84.142,299.144z"/>

						<linearGradient id="SVGID_00000079482265194773813680000011726456554679288484_" gradientUnits="userSpaceOnUse" x1="84.1432" y1="292.3815" x2="84.1432" y2="319.3542">
						<stop  offset="0" style="stop-color:#B6A89F"/>
						<stop  offset="1" style="stop-color:#A0938A"/>
					</linearGradient>
					<path style="fill-rule:evenodd;clip-rule:evenodd;fill:url(#SVGID_00000079482265194773813680000011726456554679288484_);" d="
						M84.142,299.966c1.368,0.789,2.475,2.71,2.475,4.287c0,1.578-1.107,2.214-2.475,1.427c-1.366-0.788-2.473-2.708-2.473-4.284
						C81.669,299.818,82.776,299.178,84.142,299.966L84.142,299.966z M84.142,300.828c-0.954-0.549-1.727-0.104-1.727,0.999
						s0.773,2.441,1.727,2.993c0.955,0.55,1.729,0.104,1.729-0.998C85.872,302.721,85.098,301.378,84.142,300.828z"/>

						<linearGradient id="SVGID_00000057856226402270359600000003850117075359847587_" gradientUnits="userSpaceOnUse" x1="80.7205" y1="307.788" x2="83.6442" y2="302.5135">
						<stop  offset="0" style="stop-color:#B6A89F"/>
						<stop  offset="1" style="stop-color:#A0938A"/>
					</linearGradient>
					<path style="fill-rule:evenodd;clip-rule:evenodd;fill:url(#SVGID_00000057856226402270359600000003850117075359847587_);" d="
						M84.142,299.966c0.992,0.572,1.847,1.742,2.242,2.943l-0.866-0.501c-0.315-0.66-0.814-1.256-1.375-1.579
						c-0.559-0.322-1.058-0.301-1.373-0.007l-0.867-0.501C82.297,299.574,83.151,299.394,84.142,299.966z"/>
				</g>
				<g>
					<path style="fill-rule:evenodd;clip-rule:evenodd;fill:#12150E;" d="M101.767,319.922c-1.127,0.648-2.687,0.554-4.407-0.439
						c-1.724-0.994-3.28-2.702-4.408-4.653c-1.126-1.951-1.828-4.157-1.828-6.143c0-1.989,0.7-3.387,1.828-4.038
						c1.655-0.955,2.765-1.597,4.427-2.554c1.128-0.654,2.687-0.559,4.408,0.435c1.721,0.994,3.282,2.701,4.407,4.655
						c1.127,1.954,1.826,4.159,1.826,6.145c0,1.988-0.698,3.387-1.826,4.037C104.517,318.331,103.43,318.964,101.767,319.922z"/>
					<path style="fill-rule:evenodd;clip-rule:evenodd;fill:#27302E;" d="M97.358,305.083c3.443,1.988,6.236,6.827,6.236,10.802
						c0,3.975-2.793,5.586-6.236,3.597c-3.442-1.987-6.235-6.822-6.235-10.797C91.123,304.71,93.916,303.096,97.358,305.083z"/>

						<linearGradient id="SVGID_00000109715953798450145690000008028139031038998921_" gradientUnits="userSpaceOnUse" x1="95.1107" y1="313.981" x2="90.0932" y2="321.4198">
						<stop  offset="0" style="stop-color:#272C26"/>
						<stop  offset="1" style="stop-color:#313834"/>
					</linearGradient>
					<path style="fill-rule:evenodd;clip-rule:evenodd;fill:url(#SVGID_00000109715953798450145690000008028139031038998921_);" d="
						M97.358,305.083c3.085,1.781,5.648,5.853,6.148,9.54l-12.293-7.099C91.711,304.414,94.273,303.302,97.358,305.083z"/>
					<path style="fill-rule:evenodd;clip-rule:evenodd;fill:#DDD4C6;" d="M97.358,308.604c1.76,1.014,3.187,3.49,3.187,5.521
						c0,2.031-1.427,2.852-3.187,1.838c-1.758-1.014-3.185-3.487-3.185-5.519C94.173,308.414,95.6,307.589,97.358,308.604z"/>

						<linearGradient id="SVGID_00000098188085432890737520000012965865168186864008_" gradientUnits="userSpaceOnUse" x1="95.7678" y1="308.0587" x2="104.3355" y2="322.8985">
						<stop  offset="0" style="stop-color:#B6A89F"/>
						<stop  offset="1" style="stop-color:#A0938A"/>
					</linearGradient>
					<path style="fill-rule:evenodd;clip-rule:evenodd;fill:url(#SVGID_00000098188085432890737520000012965865168186864008_);" d="
						M97.358,308.604c1.393,0.803,2.576,2.52,3.009,4.207l-6.017-3.474C94.784,308.15,95.967,307.801,97.358,308.604z"/>

						<linearGradient id="SVGID_00000137811119970122116390000012113978845958325686_" gradientUnits="userSpaceOnUse" x1="97.359" y1="301.8408" x2="97.359" y2="328.8136">
						<stop  offset="0" style="stop-color:#B6A89F"/>
						<stop  offset="1" style="stop-color:#A0938A"/>
					</linearGradient>
					<path style="fill-rule:evenodd;clip-rule:evenodd;fill:url(#SVGID_00000137811119970122116390000012113978845958325686_);" d="
						M97.358,309.426c1.368,0.789,2.475,2.71,2.475,4.287s-1.107,2.214-2.475,1.427c-1.366-0.788-2.473-2.708-2.473-4.284
						C94.885,309.278,95.992,308.638,97.358,309.426L97.358,309.426z M97.358,310.288c-0.954-0.549-1.727-0.104-1.727,0.999
						c0,1.102,0.773,2.441,1.727,2.993c0.955,0.55,1.729,0.105,1.729-0.998C99.087,312.181,98.313,310.837,97.358,310.288z"/>

						<linearGradient id="SVGID_00000134958962232882718210000014968906566040127127_" gradientUnits="userSpaceOnUse" x1="93.9363" y1="317.2473" x2="96.86" y2="311.9729">
						<stop  offset="0" style="stop-color:#B6A89F"/>
						<stop  offset="1" style="stop-color:#A0938A"/>
					</linearGradient>
					<path style="fill-rule:evenodd;clip-rule:evenodd;fill:url(#SVGID_00000134958962232882718210000014968906566040127127_);" d="
						M97.358,309.426c0.992,0.572,1.847,1.742,2.242,2.943l-0.866-0.501c-0.315-0.66-0.814-1.256-1.375-1.579
						c-0.559-0.322-1.058-0.301-1.373-0.007l-0.867-0.501C95.513,309.034,96.367,308.853,97.358,309.426z"/>
				</g>
				<polygon style="fill-rule:evenodd;clip-rule:evenodd;fill:#63645E;" points="82.48,285.702 74.095,290.546 79.475,288.37
					102.836,302.609 109.943,296.616 87.86,283.528 				"/>
				<path style="fill-rule:evenodd;clip-rule:evenodd;fill:#3F4642;" d="M74.095,290.546l5.38-2.176l22.081,13.089l5.381,8.388
					v10.704l-1.702-0.981v-5.316c0-2.451,0.257-6.796-6.116-12.028c-5.223-4.289-14.574-8.345-16.316-9.352h-0.002l-0.001-0.001
					c-3.866-2.229-7.005-0.414-7.005,4.045l-0.008,5.322l-1.702-0.984L74.095,290.546z"/>

					<linearGradient id="SVGID_00000159445687265635910010000000740720055071499679_" gradientUnits="userSpaceOnUse" x1="95.0042" y1="294.8484" x2="89.5917" y2="304.223">
					<stop  offset="0" style="stop-color:#272C26"/>
					<stop  offset="1" style="stop-color:#313834"/>
				</linearGradient>
				<path style="fill-rule:evenodd;clip-rule:evenodd;fill:url(#SVGID_00000159445687265635910010000000740720055071499679_);" d="
					M74.095,290.546l5.38-2.176l22.081,13.089l5.381,8.388v4.851l-1.717-0.99c-0.24-4.348-5.552-10.678-9.263-12.824l-13.155-8.011
					l-0.001-0.001c-3.709-2.139-6.749-0.554-6.989,3.517l-1.722-0.994L74.095,290.546z"/>
				<polygon style="fill-rule:evenodd;clip-rule:evenodd;fill:#63645E;" points="109.943,296.616 101.558,301.459 79.475,288.37
					87.86,283.528 				"/>
				<polygon style="fill-rule:evenodd;clip-rule:evenodd;fill:#4F5651;" points="109.943,296.616 101.558,301.459 106.938,309.846
					115.324,305.004 				"/>

					<linearGradient id="SVGID_00000023259353769083426700000003550093252410043835_" gradientUnits="userSpaceOnUse" x1="108.6874" y1="312.6919" x2="118.4185" y2="313.0317">
					<stop  offset="0" style="stop-color:#272C26"/>
					<stop  offset="1" style="stop-color:#313834"/>
				</linearGradient>

					<polygon style="fill-rule:evenodd;clip-rule:evenodd;fill:url(#SVGID_00000023259353769083426700000003550093252410043835_);" points="
					115.324,315.707 106.938,320.55 106.938,309.846 115.324,305.004 				"/>
			</g>
			<polygon style="fill-rule:evenodd;clip-rule:evenodd;fill:#83807E;" points="251.75,260.911 195.554,293.357 195.553,357.884
				251.75,325.439 			"/>
			<polygon style="fill-rule:evenodd;clip-rule:evenodd;fill:#00467C;" points="249.653,264.543 197.652,294.569 197.651,354.251
				249.653,324.228 			"/>
			<polygon style="fill-rule:evenodd;clip-rule:evenodd;fill:#DBD6CD;" points="68.423,218.512 195.554,293.357 251.75,260.911
				124.623,186.067 			"/>
			<polygon style="fill-rule:evenodd;clip-rule:evenodd;fill:#007CA9;" points="72.617,218.512 195.554,290.936 247.556,260.911
				124.622,188.488 			"/>
			<polygon style="fill-rule:evenodd;clip-rule:evenodd;fill:#C0B8AE;" points="68.423,218.512 195.554,293.357 195.553,357.884
				68.423,283.04 			"/>
			<polygon style="fill-rule:evenodd;clip-rule:evenodd;fill:#002279;" points="70.52,222.144 70.52,281.829 193.456,354.251
				193.457,294.569 			"/>
		</g>
		<g>
			<g>

					<linearGradient id="SVGID_00000105412969132311693240000008284590460961797799_" gradientUnits="userSpaceOnUse" x1="289.0379" y1="328.0272" x2="267.6917" y2="327.6546">
					<stop  offset="0" style="stop-color:#272C26"/>
					<stop  offset="1" style="stop-color:#313834"/>
				</linearGradient>

					<polygon style="fill-rule:evenodd;clip-rule:evenodd;fill:url(#SVGID_00000105412969132311693240000008284590460961797799_);" points="
					279.202,318.856 277.525,317.888 277.525,336.827 279.202,337.794 				"/>
				<polygon style="fill-rule:evenodd;clip-rule:evenodd;fill:#313834;" points="279.202,322.156 277.525,321.188 273.865,323.301
					275.543,324.269 				"/>
				<polygon style="fill-rule:evenodd;clip-rule:evenodd;fill:#313834;" points="279.202,334.493 277.525,333.524 273.865,335.638
					275.543,336.605 				"/>
			</g>

				<linearGradient id="SVGID_00000140736579444861277890000001274082766811463328_" gradientUnits="userSpaceOnUse" x1="274.1298" y1="332.6608" x2="296.1309" y2="315.4717">
				<stop  offset="0" style="stop-color:#272C26"/>
				<stop  offset="1" style="stop-color:#313834"/>
			</linearGradient>

				<polygon style="fill-rule:evenodd;clip-rule:evenodd;fill:url(#SVGID_00000140736579444861277890000001274082766811463328_);" points="
				279.202,334.493 276.96,335.787 276.96,337.725 279.202,336.429 279.202,337.794 282.861,335.681 282.861,316.743
				279.202,318.856 279.202,322.156 276.96,323.451 276.96,325.387 279.202,324.093 			"/>

				<linearGradient id="SVGID_00000120518587749815814000000002181201731983739047_" gradientUnits="userSpaceOnUse" x1="196.9267" y1="369.0294" x2="183.304" y2="378.2181">
				<stop  offset="0" style="stop-color:#272C26"/>
				<stop  offset="1" style="stop-color:#313834"/>
			</linearGradient>

				<polygon style="fill-rule:evenodd;clip-rule:evenodd;fill:url(#SVGID_00000120518587749815814000000002181201731983739047_);" points="
				202.993,369.756 213.957,363.427 213.957,352.722 202.993,359.052 			"/>

				<linearGradient id="SVGID_00000067949644892684323500000007648557455508485785_" gradientUnits="userSpaceOnUse" x1="215.1587" y1="296.1525" x2="287.9684" y2="427.5046">
				<stop  offset="0" style="stop-color:#A68551"/>
				<stop  offset="1" style="stop-color:#836831"/>
			</linearGradient>

				<polygon style="fill-rule:evenodd;clip-rule:evenodd;fill:url(#SVGID_00000067949644892684323500000007648557455508485785_);" points="
				279.056,342.504 229.035,371.17 229.035,390.108 279.056,361.44 			"/>
			<g>
				<path style="fill-rule:evenodd;clip-rule:evenodd;fill:#12150E;" d="M212.653,383.993c-1.127,0.65-2.686,0.556-4.407-0.438
					c-1.721-0.994-3.28-2.699-4.408-4.652c-1.129-1.953-1.826-4.157-1.826-6.145c0-1.987,0.697-3.385,1.826-4.037
					c1.657-0.958,2.765-1.598,4.427-2.556c1.128-0.653,2.687-0.559,4.408,0.436c1.721,0.994,3.28,2.701,4.408,4.655
					c1.128,1.955,1.827,4.159,1.827,6.147c0,1.986-0.699,3.385-1.827,4.035C215.401,382.405,214.317,383.035,212.653,383.993z"/>
				<path style="fill-rule:evenodd;clip-rule:evenodd;fill:#27302E;" d="M208.245,369.156c3.443,1.988,6.235,6.824,6.235,10.801
					c0,3.976-2.792,5.586-6.235,3.598c-3.443-1.987-6.235-6.823-6.235-10.798C202.011,368.781,204.803,367.168,208.245,369.156z"/>
				<path style="fill-rule:evenodd;clip-rule:evenodd;fill:#DDD4C6;" d="M208.245,372.677c1.759,1.014,3.186,3.487,3.186,5.519
					c0,2.033-1.427,2.856-3.186,1.839c-1.76-1.015-3.187-3.487-3.187-5.518C205.059,372.485,206.486,371.661,208.245,372.677z"/>

					<linearGradient id="SVGID_00000116203535390649697750000005567412408493700515_" gradientUnits="userSpaceOnUse" x1="208.2459" y1="362.7743" x2="208.2459" y2="389.747">
					<stop  offset="0" style="stop-color:#B6A89F"/>
					<stop  offset="1" style="stop-color:#A0938A"/>
				</linearGradient>
				<path style="fill-rule:evenodd;clip-rule:evenodd;fill:url(#SVGID_00000116203535390649697750000005567412408493700515_);" d="
					M208.245,373.5c1.366,0.787,2.475,2.707,2.475,4.285c0,1.578-1.109,2.217-2.475,1.428c-1.367-0.789-2.474-2.709-2.474-4.285
					C205.772,373.35,206.879,372.711,208.245,373.5z"/>
				<path style="fill-rule:evenodd;clip-rule:evenodd;fill:#DDD4C6;" d="M208.245,374.359c0.954,0.552,1.728,1.892,1.728,2.995
					c0,1.102-0.774,1.548-1.728,0.998c-0.954-0.55-1.729-1.893-1.729-2.994C206.516,374.255,207.291,373.809,208.245,374.359z"/>
			</g>
			<polygon style="fill-rule:evenodd;clip-rule:evenodd;fill:#F1CD55;" points="279.056,330.655 229.036,359.322 229.036,384.438
				279.056,355.771 			"/>
			<polygon style="fill-rule:evenodd;clip-rule:evenodd;fill:#EBC033;" points="279.056,330.655 229.036,359.322 220.485,326.166
				270.507,297.498 			"/>
			<polygon style="fill-rule:evenodd;clip-rule:evenodd;fill:#466270;" points="276.628,329.636 269.166,300.694 222.914,327.185
				230.376,356.126 			"/>
			<g>
				<polygon style="fill-rule:evenodd;clip-rule:evenodd;fill:#F4F1EB;" points="229.031,376.294 230.893,377.372 280.918,348.705
					279.055,347.627 				"/>
				<polygon style="fill-rule:evenodd;clip-rule:evenodd;fill:#3F4642;" points="230.893,377.372 280.917,348.706 279.055,347.627
					229.032,376.294 				"/>

					<linearGradient id="SVGID_00000078019138420131400140000001273225358602034876_" gradientUnits="userSpaceOnUse" x1="238.3438" y1="339.5304" x2="270.0801" y2="394.4992">
					<stop  offset="0" style="stop-color:#272C26"/>
					<stop  offset="1" style="stop-color:#313834"/>
				</linearGradient>

					<polygon style="fill-rule:evenodd;clip-rule:evenodd;fill:url(#SVGID_00000078019138420131400140000001273225358602034876_);" points="
					280.917,348.705 230.894,377.372 230.894,391.191 280.917,362.523 				"/>
				<polygon style="fill-rule:evenodd;clip-rule:evenodd;fill:#DDD4C6;" points="229.443,355.343 280.133,326.57 278.271,325.491
					227.581,354.265 				"/>

					<linearGradient id="SVGID_00000172428396619150557720000002041464628968739492_" gradientUnits="userSpaceOnUse" x1="249.3892" y1="333.9951" x2="258.6927" y2="350.1093">
					<stop  offset="0" style="stop-color:#B6A89F"/>
					<stop  offset="1" style="stop-color:#A0938A"/>
				</linearGradient>

					<polygon style="fill-rule:evenodd;clip-rule:evenodd;fill:url(#SVGID_00000172428396619150557720000002041464628968739492_);" points="
					280.133,326.569 229.444,355.343 229.01,359.373 280.133,330.191 				"/>
				<polygon style="fill-rule:evenodd;clip-rule:evenodd;fill:#222221;" points="267.859,361.146 245.743,373.947 245.743,376.403
					267.859,363.602 				"/>
				<polygon style="fill-rule:evenodd;clip-rule:evenodd;fill:#222221;" points="267.859,364.587 245.743,377.388 245.743,379.845
					267.859,367.043 				"/>
				<g>
					<polygon style="fill-rule:evenodd;clip-rule:evenodd;fill:#F1CD55;" points="240.763,380.77 233.915,384.722 233.915,387.867
						240.763,383.913 					"/>
					<polygon style="fill-rule:evenodd;clip-rule:evenodd;fill:#D78531;" points="233.277,384.354 233.915,384.722 233.915,387.867
						233.277,387.498 					"/>

						<linearGradient id="SVGID_00000146500984583241493530000014857223130438352290_" gradientUnits="userSpaceOnUse" x1="236.9059" y1="382.363" x2="230.4242" y2="371.1364">
						<stop  offset="0" style="stop-color:#C4B8B0"/>
						<stop  offset="1" style="stop-color:#A29892"/>
					</linearGradient>

						<polygon style="fill-rule:evenodd;clip-rule:evenodd;fill:url(#SVGID_00000146500984583241493530000014857223130438352290_);" points="
						240.127,380.401 233.277,384.354 233.915,384.722 240.765,380.77 					"/>
				</g>
				<g>

						<linearGradient id="SVGID_00000142865934119537324670000006557635476062842531_" gradientUnits="userSpaceOnUse" x1="235.4618" y1="377.727" x2="243.1733" y2="391.6389">
						<stop  offset="0" style="stop-color:#B6A89F"/>
						<stop  offset="1" style="stop-color:#A0938A"/>
					</linearGradient>

						<polygon style="fill-rule:evenodd;clip-rule:evenodd;fill:url(#SVGID_00000142865934119537324670000006557635476062842531_);" points="
						240.763,377.565 233.915,381.517 233.915,384.662 240.763,380.708 					"/>
					<polygon style="fill-rule:evenodd;clip-rule:evenodd;fill:#63645E;" points="233.277,381.149 233.915,381.517 233.915,384.662
						233.277,384.293 					"/>

						<linearGradient id="SVGID_00000052826055094833304380000013898763238570674320_" gradientUnits="userSpaceOnUse" x1="236.9059" y1="379.1578" x2="230.4242" y2="367.9312">
						<stop  offset="0" style="stop-color:#C4B8B0"/>
						<stop  offset="1" style="stop-color:#A29892"/>
					</linearGradient>

						<polygon style="fill-rule:evenodd;clip-rule:evenodd;fill:url(#SVGID_00000052826055094833304380000013898763238570674320_);" points="
						240.127,377.196 233.277,381.149 233.915,381.517 240.765,377.565 					"/>
				</g>
				<g>
					<polygon style="fill-rule:evenodd;clip-rule:evenodd;fill:#F1CD55;" points="279.2,358.334 272.351,362.286 272.351,365.431
						279.2,361.477 					"/>
					<polygon style="fill-rule:evenodd;clip-rule:evenodd;fill:#D78531;" points="271.713,361.918 272.351,362.286 272.351,365.431
						271.713,365.062 					"/>

						<linearGradient id="SVGID_00000129172066188184823950000018264555334897265821_" gradientUnits="userSpaceOnUse" x1="275.3428" y1="359.9268" x2="268.8611" y2="348.7003">
						<stop  offset="0" style="stop-color:#C4B8B0"/>
						<stop  offset="1" style="stop-color:#A29892"/>
					</linearGradient>

						<polygon style="fill-rule:evenodd;clip-rule:evenodd;fill:url(#SVGID_00000129172066188184823950000018264555334897265821_);" points="
						278.564,357.965 271.713,361.918 272.351,362.286 279.202,358.334 					"/>
				</g>
				<g>

						<linearGradient id="SVGID_00000149347671506457876470000006768267641435063170_" gradientUnits="userSpaceOnUse" x1="273.8987" y1="355.2908" x2="281.6102" y2="369.2028">
						<stop  offset="0" style="stop-color:#B6A89F"/>
						<stop  offset="1" style="stop-color:#A0938A"/>
					</linearGradient>

						<polygon style="fill-rule:evenodd;clip-rule:evenodd;fill:url(#SVGID_00000149347671506457876470000006768267641435063170_);" points="
						279.2,355.129 272.351,359.081 272.351,362.226 279.2,358.271 					"/>
					<polygon style="fill-rule:evenodd;clip-rule:evenodd;fill:#63645E;" points="271.713,358.712 272.351,359.081 272.351,362.226
						271.713,361.857 					"/>

						<linearGradient id="SVGID_00000180337303638161705180000009901955736852497335_" gradientUnits="userSpaceOnUse" x1="275.3428" y1="356.7216" x2="268.8611" y2="345.4951">
						<stop  offset="0" style="stop-color:#C4B8B0"/>
						<stop  offset="1" style="stop-color:#A29892"/>
					</linearGradient>

						<polygon style="fill-rule:evenodd;clip-rule:evenodd;fill:url(#SVGID_00000180337303638161705180000009901955736852497335_);" points="
						278.564,354.76 271.713,358.712 272.351,359.081 279.202,355.129 					"/>
				</g>
				<g>

						<linearGradient id="SVGID_00000002373523359060624880000004349437474908912269_" gradientUnits="userSpaceOnUse" x1="253.0315" y1="351.1521" x2="261.5241" y2="366.4731">
						<stop  offset="0" style="stop-color:#272C26"/>
						<stop  offset="1" style="stop-color:#313834"/>
					</linearGradient>

						<polygon style="fill-rule:evenodd;clip-rule:evenodd;fill:url(#SVGID_00000002373523359060624880000004349437474908912269_);" points="
						267.04,346.445 243.158,360.173 243.158,363.318 267.04,349.588 					"/>
					<polygon style="fill-rule:evenodd;clip-rule:evenodd;fill:#3F4642;" points="242.52,359.805 243.158,360.173 243.158,363.318
						242.52,362.949 					"/>
					<polygon style="fill-rule:evenodd;clip-rule:evenodd;fill:#63645E;" points="266.403,346.077 242.52,359.805 243.158,360.173
						267.041,346.445 					"/>
				</g>
				<g>

						<linearGradient id="SVGID_00000178904329452065092490000000272871393273940118_" gradientUnits="userSpaceOnUse" x1="256.5387" y1="367.8388" x2="261.6197" y2="377.0051">
						<stop  offset="0" style="stop-color:#B6A89F"/>
						<stop  offset="1" style="stop-color:#A0938A"/>
					</linearGradient>

						<polygon style="fill-rule:evenodd;clip-rule:evenodd;fill:url(#SVGID_00000178904329452065092490000000272871393273940118_);" points="
						260.032,367.732 255.519,370.335 255.519,372.407 260.032,369.802 					"/>

						<linearGradient id="SVGID_00000094598894318537348000000010602939702233357473_" gradientUnits="userSpaceOnUse" x1="255.9494" y1="371.2501" x2="254.5098" y2="371.2501">
						<stop  offset="0" style="stop-color:#B6A89F"/>
						<stop  offset="1" style="stop-color:#A0938A"/>
					</linearGradient>

						<polygon style="fill-rule:evenodd;clip-rule:evenodd;fill:url(#SVGID_00000094598894318537348000000010602939702233357473_);" points="
						255.099,370.093 255.519,370.335 255.519,372.407 255.099,372.164 					"/>

						<linearGradient id="SVGID_00000013876430542502095680000001262086163499611303_" gradientUnits="userSpaceOnUse" x1="257.4902" y1="368.781" x2="253.2196" y2="361.3841">
						<stop  offset="0" style="stop-color:#C4B8B0"/>
						<stop  offset="1" style="stop-color:#A29892"/>
					</linearGradient>

						<polygon style="fill-rule:evenodd;clip-rule:evenodd;fill:url(#SVGID_00000013876430542502095680000001262086163499611303_);" points="
						259.612,367.489 255.099,370.093 255.519,370.335 260.033,367.732 					"/>
				</g>

					<linearGradient id="SVGID_00000054254527964088744580000015573726138971410604_" gradientUnits="userSpaceOnUse" x1="227.5813" y1="356.8188" x2="229.4437" y2="356.8188">
					<stop  offset="0" style="stop-color:#B6A89F"/>
					<stop  offset="1" style="stop-color:#8F837F"/>
				</linearGradient>

					<polygon style="fill-rule:evenodd;clip-rule:evenodd;fill:url(#SVGID_00000054254527964088744580000015573726138971410604_);" points="
					227.581,354.265 229.01,359.373 229.444,355.343 				"/>
			</g>
			<path style="fill-rule:evenodd;clip-rule:evenodd;fill:#3F4642;" d="M200.274,360.095l6.398,1.113l6.655,3.844l5.382,8.388
				v10.704l-1.702-0.981v-5.316c0-4.461-3.14-9.901-7.006-12.137H210l-0.002-0.001c-3.866-2.231-7.005-0.414-7.005,4.046h-0.008
				l-2.72-1.572L200.274,360.095z"/>

				<linearGradient id="SVGID_00000067202323396416493290000005052598537618076297_" gradientUnits="userSpaceOnUse" x1="202.9646" y1="364.1445" x2="197.8714" y2="364.0556">
				<stop  offset="0" style="stop-color:#272C26"/>
				<stop  offset="1" style="stop-color:#313834"/>
			</linearGradient>

				<polygon style="fill-rule:evenodd;clip-rule:evenodd;fill:url(#SVGID_00000067202323396416493290000005052598537618076297_);" points="
				200.274,360.095 201.058,359.585 201.058,368.638 200.274,368.184 			"/>
			<polygon style="fill-rule:evenodd;clip-rule:evenodd;fill:#FBEF79;" points="270.507,297.497 220.485,326.166 200.274,314.494
				250.296,285.826 			"/>
			<path style="fill-rule:evenodd;clip-rule:evenodd;fill:#B77D02;" d="M200.274,314.495l20.211,11.671l8.549,33.156v16.971
				l1.859,1.078l0.001,13.819c-3.797-2.194-10.089-5.836-13.887-8.027v-5.316c0-4.579-3.116-9.886-7.006-12.137H210l-0.002-0.001
				l-0.012-0.007l-0.013-0.007l-0.013-0.007l-0.013-0.007l-0.012-0.007l-0.013-0.006l-0.013-0.007
				c-3.209-1.776-6.426-3.711-9.635-5.564V314.495z"/>
			<polygon style="fill-rule:evenodd;clip-rule:evenodd;fill:#995C01;" points="204.353,319.272 204.353,345.071 218.241,353.09
				218.241,359.433 226.937,364.455 226.937,359.589 226.49,357.853 222.402,342 218.674,327.542 			"/>
			<polygon style="fill-rule:evenodd;clip-rule:evenodd;fill:#995C01;" points="204.353,345.071 218.241,353.09 219.878,351.971
				219.878,345.071 			"/>
			<polygon style="fill-rule:evenodd;clip-rule:evenodd;fill:#995C01;" points="226.897,359.433 218.241,359.433 226.937,364.455
				226.937,359.589 			"/>
			<polygon style="fill-rule:evenodd;clip-rule:evenodd;fill:#314465;" points="206.47,320.494 206.47,343.848 220.359,351.868
				220.359,358.211 226.937,362.01 226.937,359.589 226.49,357.853 222.402,342 218.674,327.542 			"/>
			<path style="fill-rule:evenodd;clip-rule:evenodd;fill:#466270;" d="M206.47,320.494v23.354l2.074,1.198v-21.652l10.645,6.147
				l-0.515-1.998L206.47,320.494L206.47,320.494z M220.359,351.868v6.343l2.074,1.198v-2.196L220.359,351.868z"/>
			<path style="fill-rule:evenodd;clip-rule:evenodd;fill:#995C01;" d="M225.26,351.148v0.031c0,0.628,0,1.258,0,1.887v0.031
				c0.748,1.928,1.496,3.856,2.242,5.779v7.033l-0.564-1.453l-1.677-0.969v0.031v0.03v0.031v0.03v0.031v0.029v0.03v0.031v0.031
				v0.031v0.03v0.03v0.031v0.031v0.031v0.031v0.03v0.03v0.031v0.031v0.031v0.031v0.031v0.031v0.03v0.031v0.03v0.031v0.031v0.031
				v0.031v0.031v0.03v0.03v0.031v0.031v0.03v0.031v0.031v0.031v0.031v0.031v0.031v0.029v0.031v0.031v0.031v0.031v0.031v0.031v0.031
				v0.031v0.031v0.03v0.031v0.031v0.029v0.031v0.031v0.031v0.031v0.031v0.031v0.031c0.748,1.928,1.496,3.856,2.242,5.78
				c0,0.451,0,0.903,0,1.354l1.533,3.952v-17.196l-1.456-5.651l-0.048-0.027l-0.593-1.527L225.26,351.148z"/>
			<g>
				<polygon style="fill-rule:evenodd;clip-rule:evenodd;fill:#3F4642;" points="221.036,371.163 219.358,370.196 219.358,351.257
					221.036,352.224 				"/>
				<polygon style="fill-rule:evenodd;clip-rule:evenodd;fill:#63645E;" points="224.696,350.112 223.017,349.143 219.358,351.257
					221.036,352.224 				"/>
				<polygon style="fill-rule:evenodd;clip-rule:evenodd;fill:#63645E;" points="226.937,352.118 225.26,351.148 223.02,352.442
					224.696,353.411 				"/>
				<polygon style="fill-rule:evenodd;clip-rule:evenodd;fill:#313834;" points="223.141,356.247 223.14,354.31 226.937,352.118
					226.937,354.055 				"/>
				<polygon style="fill-rule:evenodd;clip-rule:evenodd;fill:#63645E;" points="226.937,352.118 225.26,351.148 223.02,352.442
					224.696,353.411 				"/>
				<polygon style="fill-rule:evenodd;clip-rule:evenodd;fill:#313834;" points="223.02,352.442 224.696,353.412 226.375,352.442
									"/>
				<polygon style="fill-rule:evenodd;clip-rule:evenodd;fill:#63645E;" points="226.937,364.455 225.26,363.486 223.02,364.778
					224.696,365.749 				"/>
				<polygon style="fill-rule:evenodd;clip-rule:evenodd;fill:#313834;" points="223.165,368.569 223.164,366.633 226.937,364.455
					226.937,366.392 				"/>
				<polygon style="fill-rule:evenodd;clip-rule:evenodd;fill:#313834;" points="223.02,364.778 224.696,365.748 226.375,364.778
									"/>
				<polygon style="fill-rule:evenodd;clip-rule:evenodd;fill:#313834;" points="224.696,350.112 224.696,369.051 221.036,371.163
					221.036,352.224 				"/>
			</g>
			<polygon style="fill-rule:evenodd;clip-rule:evenodd;fill:#313834;" points="282.861,316.743 281.184,315.775 277.525,317.888
				279.202,318.856 			"/>
			<polygon style="fill:#86C0AA;" points="276.534,326.483 247.448,313.133 269.166,300.694 			"/>
			<polygon style="fill-rule:evenodd;clip-rule:evenodd;fill:#B77D02;" points="200.274,314.495 200.274,302.147 216.226,323.706
							"/>
			<polygon style="fill-rule:evenodd;clip-rule:evenodd;fill:#EBC033;" points="216.226,323.706 265.974,294.879 247.673,276.052
				200.274,302.147 			"/>
			<g>
				<polygon style="fill-rule:evenodd;clip-rule:evenodd;fill:#EBC033;" points="234.382,315.723 232.006,314.351 234.382,312.979
					237.738,312.979 240.113,314.351 237.738,315.723 				"/>
				<g>
					<polygon style="fill-rule:evenodd;clip-rule:evenodd;fill:#E5AD54;" points="236.758,310.995 234.382,312.367 232.006,310.995
						234.382,309.624 					"/>
					<polygon style="fill-rule:evenodd;clip-rule:evenodd;fill:#D78531;" points="232.006,314.349 234.382,315.723 234.382,312.368
						232.006,310.996 					"/>
					<polygon style="fill-rule:evenodd;clip-rule:evenodd;fill:#9B5123;" points="236.758,314.351 234.382,315.723 234.382,312.368
						236.758,310.996 					"/>
				</g>
			</g>
			<g>
				<polygon style="fill-rule:evenodd;clip-rule:evenodd;fill:#EBC033;" points="240.323,312.293 237.947,310.922 240.323,309.551
					243.678,309.551 246.055,310.922 243.678,312.293 				"/>
				<g>
					<polygon style="fill-rule:evenodd;clip-rule:evenodd;fill:#E5AD54;" points="242.699,307.567 240.323,308.938 237.947,307.567
						240.323,306.195 					"/>
					<polygon style="fill-rule:evenodd;clip-rule:evenodd;fill:#D78531;" points="237.947,310.921 240.323,312.293 240.323,308.939
						237.947,307.568 					"/>
					<polygon style="fill-rule:evenodd;clip-rule:evenodd;fill:#9B5123;" points="242.699,310.922 240.323,312.293 240.323,308.939
						242.699,307.568 					"/>
				</g>
			</g>
			<g>
				<polygon style="fill-rule:evenodd;clip-rule:evenodd;fill:#EBC033;" points="246.264,308.864 243.888,307.493 246.264,306.122
					249.619,306.122 251.996,307.493 249.619,308.864 				"/>
				<g>
					<polygon style="fill-rule:evenodd;clip-rule:evenodd;fill:#E5AD54;" points="248.641,304.138 246.264,305.509 243.888,304.138
						246.264,302.767 					"/>
					<polygon style="fill-rule:evenodd;clip-rule:evenodd;fill:#D78531;" points="243.888,307.492 246.264,308.864 246.264,305.51
						243.888,304.139 					"/>
					<polygon style="fill-rule:evenodd;clip-rule:evenodd;fill:#9B5123;" points="248.641,307.493 246.264,308.864 246.264,305.51
						248.641,304.139 					"/>
				</g>
			</g>

				<linearGradient id="SVGID_00000017518592342265555920000004677059975432089232_" gradientUnits="userSpaceOnUse" x1="208.2616" y1="377.9628" x2="230.8943" y2="377.9628">
				<stop  offset="0" style="stop-color:#272C26"/>
				<stop  offset="1" style="stop-color:#313834"/>
			</linearGradient>
			<path style="fill-rule:evenodd;clip-rule:evenodd;fill:url(#SVGID_00000017518592342265555920000004677059975432089232_);" d="
				M208.262,364.735c0,0,5.726,3.168,7.964,8.956c0.912,2.358,0.781,9.473,0.781,9.473l13.887,8.027v-13.819L208.262,364.735z"/>
		</g>
	</g>
	<g>
		<g>
			<polygon style="fill:#B77D02;" points="237.988,189.541 209.389,171.389 209.389,148.549 222.426,124.927 269.6,97.874
				295.881,111.99 295.881,154.764 			"/>
			<polygon style="fill:#314465;" points="211.532,148.128 223.042,127.917 230.847,132.595 230.044,157.074 			"/>
			<g>
				<polygon style="fill-rule:evenodd;clip-rule:evenodd;fill:#3F4642;" points="207.429,164.86 205.751,163.893 205.751,144.954
					207.429,145.921 				"/>
				<polygon style="fill-rule:evenodd;clip-rule:evenodd;fill:#63645E;" points="211.089,143.809 209.41,142.841 205.751,144.954
					207.429,145.921 				"/>
				<polygon style="fill-rule:evenodd;clip-rule:evenodd;fill:#63645E;" points="213.33,145.815 211.653,144.846 209.413,146.14
					211.089,147.109 				"/>
				<polygon style="fill-rule:evenodd;clip-rule:evenodd;fill:#313834;" points="209.534,149.944 209.533,148.008 213.33,145.816
					213.33,147.752 				"/>
				<polygon style="fill-rule:evenodd;clip-rule:evenodd;fill:#63645E;" points="213.33,145.815 211.653,144.846 209.413,146.14
					211.089,147.109 				"/>
				<polygon style="fill-rule:evenodd;clip-rule:evenodd;fill:#313834;" points="209.413,146.14 211.089,147.11 212.768,146.14
					"/>
				<polygon style="fill-rule:evenodd;clip-rule:evenodd;fill:#63645E;" points="213.33,158.152 211.653,157.183 209.413,158.476
					211.089,159.446 				"/>
				<polygon style="fill-rule:evenodd;clip-rule:evenodd;fill:#313834;" points="209.558,162.267 209.557,160.33 213.33,158.152
					213.33,160.09 				"/>
				<polygon style="fill-rule:evenodd;clip-rule:evenodd;fill:#313834;" points="209.413,158.475 211.089,159.445 212.768,158.475
									"/>
				<polygon style="fill-rule:evenodd;clip-rule:evenodd;fill:#313834;" points="211.089,143.809 211.089,162.748 207.429,164.86
					207.429,145.921 				"/>
			</g>
			<path style="fill-rule:evenodd;clip-rule:evenodd;fill:#12150E;" d="M212.768,168.851l-0.564,5.964l14.71,9.16l0.214-8.802
				l-6.922-6.322C220.207,168.851,215.079,167.673,212.768,168.851z"/>
			<g>
				<path style="fill-rule:evenodd;clip-rule:evenodd;fill:#12150E;" d="M220.873,189.381c-1.127,0.65-2.686,0.556-4.407-0.438
					c-1.721-0.994-3.28-2.699-4.408-4.652c-1.129-1.953-1.826-4.157-1.826-6.145c0-1.987,0.697-3.385,1.826-4.037
					c1.657-0.958,2.765-1.598,4.427-2.556c1.128-0.653,2.687-0.559,4.408,0.436c1.721,0.994,3.28,2.701,4.408,4.655
					c1.128,1.955,1.827,4.159,1.827,6.147c0,1.986-0.699,3.385-1.827,4.035C223.621,187.793,222.538,188.423,220.873,189.381z"/>
				<path style="fill-rule:evenodd;clip-rule:evenodd;fill:#27302E;" d="M216.466,174.544c3.443,1.988,6.235,6.824,6.235,10.801
					c0,3.976-2.792,5.586-6.235,3.598c-3.443-1.987-6.235-6.823-6.235-10.798C210.231,174.168,213.023,172.555,216.466,174.544z"/>
				<path style="fill-rule:evenodd;clip-rule:evenodd;fill:#DDD4C6;" d="M216.466,178.064c1.759,1.014,3.186,3.487,3.186,5.519
					c0,2.033-1.427,2.856-3.186,1.839c-1.76-1.015-3.187-3.487-3.187-5.518C213.279,177.873,214.706,177.049,216.466,178.064z"/>

					<linearGradient id="SVGID_00000034084447180419400990000004988287092196004504_" gradientUnits="userSpaceOnUse" x1="216.4661" y1="168.1619" x2="216.4661" y2="195.1347">
					<stop  offset="0" style="stop-color:#B6A89F"/>
					<stop  offset="1" style="stop-color:#A0938A"/>
				</linearGradient>
				<path style="fill-rule:evenodd;clip-rule:evenodd;fill:url(#SVGID_00000034084447180419400990000004988287092196004504_);" d="
					M216.466,178.887c1.366,0.787,2.475,2.707,2.475,4.285c0,1.578-1.109,2.217-2.475,1.428c-1.367-0.789-2.474-2.709-2.474-4.285
					C213.992,178.737,215.099,178.098,216.466,178.887z"/>
				<path style="fill-rule:evenodd;clip-rule:evenodd;fill:#DDD4C6;" d="M216.466,179.746c0.954,0.552,1.728,1.892,1.728,2.995
					c0,1.102-0.774,1.548-1.728,0.998c-0.954-0.55-1.729-1.893-1.729-2.994C214.736,179.643,215.511,179.196,216.466,179.746z"/>
			</g>

				<linearGradient id="SVGID_00000042709570060939827890000016332235916064731029_" gradientUnits="userSpaceOnUse" x1="209.2589" y1="174.8665" x2="232.3163" y2="174.8665">
				<stop  offset="0" style="stop-color:#272C26"/>
				<stop  offset="1" style="stop-color:#313834"/>
			</linearGradient>
			<path style="fill:url(#SVGID_00000042709570060939827890000016332235916064731029_);" d="M209.389,173.03l3.378,2.143v-0.874
				c0-3.147,2.51-6.143,6.02-4.634c0.048,0.021,0.819,0.488,0.864,0.516c8.632,5.465,6.059,13.027,6.059,13.027l6.606,4.209v-12.168
				l-23.057-12.933L209.389,173.03z"/>
			<polygon style="fill-rule:evenodd;clip-rule:evenodd;fill:#EBC033;" points="222.426,124.927 230.025,129.312 277.103,102.133
				269.6,97.874 			"/>
		</g>
		<g>
			<g>
				<polygon style="fill-rule:evenodd;clip-rule:evenodd;fill:#12150E;" points="321.455,231.92 310.246,238.391 310.246,248.66
					321.455,242.188 				"/>
				<path style="fill-rule:evenodd;clip-rule:evenodd;fill:#12150E;" d="M321.66,255.689c-1.127,0.648-2.687,0.554-4.407-0.439
					c-1.724-0.994-3.28-2.702-4.408-4.653c-1.126-1.951-1.828-4.157-1.828-6.143c0-1.989,0.7-3.387,1.828-4.038
					c1.655-0.955,2.765-1.597,4.427-2.554c1.128-0.654,2.687-0.559,4.408,0.435c1.721,0.994,3.282,2.701,4.407,4.655
					c1.127,1.954,1.826,4.159,1.826,6.145c0,1.988-0.698,3.387-1.826,4.037C324.41,254.099,323.323,254.731,321.66,255.689z"/>
				<path style="fill-rule:evenodd;clip-rule:evenodd;fill:#27302E;" d="M317.251,240.85c3.443,1.988,6.236,6.827,6.236,10.802
					c0,3.975-2.793,5.586-6.236,3.597c-3.442-1.987-6.235-6.822-6.235-10.797C311.016,240.478,313.809,238.863,317.251,240.85z"/>

					<linearGradient id="SVGID_00000010302844688926550440000002010617036105259960_" gradientUnits="userSpaceOnUse" x1="315.0039" y1="249.7483" x2="309.9864" y2="257.1871">
					<stop  offset="0" style="stop-color:#272C26"/>
					<stop  offset="1" style="stop-color:#313834"/>
				</linearGradient>
				<path style="fill-rule:evenodd;clip-rule:evenodd;fill:url(#SVGID_00000010302844688926550440000002010617036105259960_);" d="
					M317.251,240.85c3.085,1.781,5.648,5.853,6.148,9.54l-12.293-7.098C311.605,240.181,314.166,239.069,317.251,240.85z"/>
				<path style="fill-rule:evenodd;clip-rule:evenodd;fill:#DDD4C6;" d="M317.251,244.371c1.76,1.014,3.187,3.49,3.187,5.521
					s-1.427,2.852-3.187,1.838c-1.758-1.014-3.185-3.487-3.185-5.519C314.066,244.181,315.493,243.356,317.251,244.371z"/>

					<linearGradient id="SVGID_00000106846578983899809650000013894018306465745802_" gradientUnits="userSpaceOnUse" x1="315.6609" y1="243.826" x2="324.2287" y2="258.6658">
					<stop  offset="0" style="stop-color:#B6A89F"/>
					<stop  offset="1" style="stop-color:#A0938A"/>
				</linearGradient>
				<path style="fill-rule:evenodd;clip-rule:evenodd;fill:url(#SVGID_00000106846578983899809650000013894018306465745802_);" d="
					M317.251,244.371c1.393,0.803,2.576,2.52,3.009,4.207l-6.017-3.474C314.677,243.917,315.86,243.568,317.251,244.371z"/>

					<linearGradient id="SVGID_00000010993532601085656450000007089808506809527179_" gradientUnits="userSpaceOnUse" x1="317.2521" y1="237.6081" x2="317.2521" y2="264.5809">
					<stop  offset="0" style="stop-color:#B6A89F"/>
					<stop  offset="1" style="stop-color:#A0938A"/>
				</linearGradient>
				<path style="fill-rule:evenodd;clip-rule:evenodd;fill:url(#SVGID_00000010993532601085656450000007089808506809527179_);" d="
					M317.251,245.193c1.368,0.789,2.475,2.71,2.475,4.287s-1.107,2.214-2.475,1.427c-1.366-0.788-2.473-2.708-2.473-4.284
					C314.778,245.045,315.885,244.405,317.251,245.193L317.251,245.193z M317.251,246.055c-0.954-0.549-1.727-0.104-1.727,0.999
					c0,1.102,0.773,2.441,1.727,2.993c0.955,0.55,1.729,0.104,1.729-0.998C318.981,247.948,318.206,246.604,317.251,246.055z"/>

					<linearGradient id="SVGID_00000094602663974686231340000015704416333160143242_" gradientUnits="userSpaceOnUse" x1="313.8295" y1="253.0146" x2="316.7531" y2="247.7402">
					<stop  offset="0" style="stop-color:#B6A89F"/>
					<stop  offset="1" style="stop-color:#A0938A"/>
				</linearGradient>
				<path style="fill-rule:evenodd;clip-rule:evenodd;fill:url(#SVGID_00000094602663974686231340000015704416333160143242_);" d="
					M317.251,245.193c0.992,0.572,1.847,1.742,2.242,2.943l-0.866-0.501c-0.315-0.66-0.814-1.256-1.375-1.579
					c-0.559-0.322-1.058-0.301-1.373-0.007l-0.867-0.501C315.406,244.801,316.26,244.621,317.251,245.193z"/>
				<polygon style="fill-rule:evenodd;clip-rule:evenodd;fill:#3F4642;" points="320.102,231.113 324.764,232.47 331.421,236.313
					331.466,237.674 				"/>
				<polygon style="fill-rule:evenodd;clip-rule:evenodd;fill:#63645E;" points="316.938,232.123 308.553,236.967 321.868,239.786
					328.975,233.793 322.318,229.949 				"/>
				<path style="fill-rule:evenodd;clip-rule:evenodd;fill:#3F4642;" d="M308.553,236.967l5.38-2.176l6.656,3.844l5.381,8.388
					v10.704l-1.702-0.981v-5.316c0-4.46-3.14-9.901-7.006-12.136h-0.002l-0.001-0.001c-3.866-2.229-7.005-0.414-7.005,4.045
					l-0.008,5.322l-1.702-0.984L308.553,236.967z"/>

					<linearGradient id="SVGID_00000021086585539376033090000009219934011910614425_" gradientUnits="userSpaceOnUse" x1="321.6411" y1="236.835" x2="316.4036" y2="245.9066">
					<stop  offset="0" style="stop-color:#272C26"/>
					<stop  offset="1" style="stop-color:#313834"/>
				</linearGradient>
				<path style="fill-rule:evenodd;clip-rule:evenodd;fill:url(#SVGID_00000021086585539376033090000009219934011910614425_);" d="
					M308.553,236.967l5.38-2.176l6.656,3.844l5.381,8.388v4.851l-1.717-0.99c-0.24-4.348-3.28-9.445-6.99-11.59h-0.002l-0.001-0.001
					c-3.709-2.139-6.749-0.554-6.989,3.517l-1.722-0.994L308.553,236.967z"/>
				<polygon style="fill-rule:evenodd;clip-rule:evenodd;fill:#63645E;" points="328.975,233.793 320.59,238.636 313.933,234.791
					322.318,229.949 				"/>
				<polygon style="fill-rule:evenodd;clip-rule:evenodd;fill:#4F5651;" points="328.975,233.793 320.59,238.636 325.97,247.023
					334.356,242.181 				"/>

					<linearGradient id="SVGID_00000043445926638583776520000011660594971585348027_" gradientUnits="userSpaceOnUse" x1="327.7195" y1="249.8689" x2="337.4506" y2="250.2087">
					<stop  offset="0" style="stop-color:#272C26"/>
					<stop  offset="1" style="stop-color:#313834"/>
				</linearGradient>

					<polygon style="fill-rule:evenodd;clip-rule:evenodd;fill:url(#SVGID_00000043445926638583776520000011660594971585348027_);" points="
					334.356,252.884 325.97,257.727 325.97,247.023 334.356,242.181 				"/>
			</g>
			<g>
				<polygon style="fill-rule:evenodd;clip-rule:evenodd;fill:#12150E;" points="248.908,190.638 237.988,193.887 239.681,205.58
					249.185,201.461 				"/>
				<g>
					<path style="fill-rule:evenodd;clip-rule:evenodd;fill:#12150E;" d="M252.444,213.804c-1.127,0.648-2.687,0.554-4.407-0.439
						c-1.724-0.994-3.28-2.702-4.408-4.653c-1.126-1.951-1.828-4.157-1.828-6.143c0-1.989,0.7-3.387,1.828-4.038
						c1.655-0.955,2.765-1.597,4.427-2.554c1.128-0.654,2.687-0.559,4.408,0.435c1.721,0.994,3.282,2.701,4.407,4.655
						c1.127,1.954,1.826,4.159,1.826,6.145c0,1.988-0.698,3.387-1.826,4.037C255.194,212.213,254.107,212.846,252.444,213.804z"/>
					<path style="fill-rule:evenodd;clip-rule:evenodd;fill:#27302E;" d="M248.035,198.965c3.443,1.988,6.236,6.827,6.236,10.802
						c0,3.975-2.793,5.586-6.236,3.597c-3.442-1.987-6.235-6.822-6.235-10.797C241.801,198.592,244.593,196.978,248.035,198.965z"/>

						<linearGradient id="SVGID_00000176727904729453134200000010282010669842301069_" gradientUnits="userSpaceOnUse" x1="245.788" y1="207.8629" x2="240.7705" y2="215.3017">
						<stop  offset="0" style="stop-color:#272C26"/>
						<stop  offset="1" style="stop-color:#313834"/>
					</linearGradient>
					<path style="fill-rule:evenodd;clip-rule:evenodd;fill:url(#SVGID_00000176727904729453134200000010282010669842301069_);" d="
						M248.035,198.965c3.085,1.781,5.648,5.853,6.148,9.54l-12.293-7.098C242.389,198.295,244.95,197.184,248.035,198.965z"/>
					<path style="fill-rule:evenodd;clip-rule:evenodd;fill:#DDD4C6;" d="M248.035,202.486c1.76,1.014,3.187,3.49,3.187,5.521
						c0,2.031-1.427,2.852-3.187,1.838c-1.758-1.014-3.185-3.487-3.185-5.519C244.85,202.296,246.277,201.471,248.035,202.486z"/>

						<linearGradient id="SVGID_00000156566855803147927240000016615798023670045337_" gradientUnits="userSpaceOnUse" x1="246.4451" y1="201.9407" x2="255.0129" y2="216.7804">
						<stop  offset="0" style="stop-color:#B6A89F"/>
						<stop  offset="1" style="stop-color:#A0938A"/>
					</linearGradient>
					<path style="fill-rule:evenodd;clip-rule:evenodd;fill:url(#SVGID_00000156566855803147927240000016615798023670045337_);" d="
						M248.035,202.486c1.393,0.803,2.576,2.52,3.009,4.207l-6.017-3.474C245.461,202.031,246.645,201.683,248.035,202.486z"/>

						<linearGradient id="SVGID_00000075880946837440460430000014344172673328565166_" gradientUnits="userSpaceOnUse" x1="248.0363" y1="195.7227" x2="248.0363" y2="222.6955">
						<stop  offset="0" style="stop-color:#B6A89F"/>
						<stop  offset="1" style="stop-color:#A0938A"/>
					</linearGradient>
					<path style="fill-rule:evenodd;clip-rule:evenodd;fill:url(#SVGID_00000075880946837440460430000014344172673328565166_);" d="
						M248.035,203.308c1.368,0.789,2.475,2.71,2.475,4.287c0,1.578-1.107,2.214-2.475,1.427c-1.366-0.788-2.473-2.708-2.473-4.284
						C245.563,203.16,246.67,202.52,248.035,203.308L248.035,203.308z M248.035,204.17c-0.954-0.549-1.727-0.104-1.727,0.999
						c0,1.102,0.773,2.441,1.727,2.993c0.955,0.55,1.729,0.105,1.729-0.998C249.765,206.063,248.991,204.719,248.035,204.17z"/>

						<linearGradient id="SVGID_00000154424060822729724870000005874545833048576915_" gradientUnits="userSpaceOnUse" x1="244.6136" y1="211.1293" x2="247.5373" y2="205.8548">
						<stop  offset="0" style="stop-color:#B6A89F"/>
						<stop  offset="1" style="stop-color:#A0938A"/>
					</linearGradient>
					<path style="fill-rule:evenodd;clip-rule:evenodd;fill:url(#SVGID_00000154424060822729724870000005874545833048576915_);" d="
						M248.035,203.308c0.992,0.572,1.847,1.742,2.242,2.943l-0.866-0.501c-0.315-0.66-0.814-1.256-1.375-1.579
						c-0.559-0.322-1.058-0.301-1.373-0.007l-0.867-0.501C246.19,202.916,247.044,202.735,248.035,203.308z"/>
				</g>
				<g>
					<path style="fill-rule:evenodd;clip-rule:evenodd;fill:#12150E;" d="M265.66,223.263c-1.127,0.648-2.687,0.554-4.407-0.439
						c-1.724-0.994-3.28-2.702-4.408-4.653c-1.126-1.951-1.828-4.157-1.828-6.143c0-1.989,0.7-3.387,1.828-4.038
						c1.655-0.955,2.765-1.597,4.427-2.554c1.128-0.654,2.687-0.559,4.408,0.435c1.721,0.994,3.282,2.701,4.407,4.655
						c1.127,1.954,1.826,4.159,1.826,6.145c0,1.988-0.698,3.387-1.826,4.037C268.41,221.672,267.323,222.305,265.66,223.263z"/>
					<path style="fill-rule:evenodd;clip-rule:evenodd;fill:#27302E;" d="M261.251,208.424c3.443,1.988,6.236,6.827,6.236,10.802
						c0,3.975-2.793,5.586-6.236,3.597c-3.442-1.987-6.235-6.822-6.235-10.797C255.016,208.052,257.809,206.437,261.251,208.424z"/>

						<linearGradient id="SVGID_00000147912363767576954190000012022675657528679562_" gradientUnits="userSpaceOnUse" x1="259.0038" y1="217.3223" x2="253.9863" y2="224.7611">
						<stop  offset="0" style="stop-color:#272C26"/>
						<stop  offset="1" style="stop-color:#313834"/>
					</linearGradient>
					<path style="fill-rule:evenodd;clip-rule:evenodd;fill:url(#SVGID_00000147912363767576954190000012022675657528679562_);" d="
						M261.251,208.424c3.085,1.781,5.648,5.853,6.148,9.54l-12.293-7.098C255.605,207.755,258.166,206.643,261.251,208.424z"/>
					<path style="fill-rule:evenodd;clip-rule:evenodd;fill:#DDD4C6;" d="M261.251,211.945c1.76,1.014,3.187,3.49,3.187,5.521
						s-1.427,2.852-3.187,1.838c-1.758-1.014-3.185-3.487-3.185-5.519C258.066,211.755,259.493,210.93,261.251,211.945z"/>

						<linearGradient id="SVGID_00000031182492578090616860000011921558566760313789_" gradientUnits="userSpaceOnUse" x1="259.6609" y1="211.4" x2="268.2287" y2="226.2398">
						<stop  offset="0" style="stop-color:#B6A89F"/>
						<stop  offset="1" style="stop-color:#A0938A"/>
					</linearGradient>
					<path style="fill-rule:evenodd;clip-rule:evenodd;fill:url(#SVGID_00000031182492578090616860000011921558566760313789_);" d="
						M261.251,211.945c1.393,0.803,2.576,2.52,3.009,4.207l-6.017-3.474C258.677,211.491,259.86,211.142,261.251,211.945z"/>

						<linearGradient id="SVGID_00000150062982888092808260000013801711924739166882_" gradientUnits="userSpaceOnUse" x1="261.2521" y1="205.1821" x2="261.2521" y2="232.1549">
						<stop  offset="0" style="stop-color:#B6A89F"/>
						<stop  offset="1" style="stop-color:#A0938A"/>
					</linearGradient>
					<path style="fill-rule:evenodd;clip-rule:evenodd;fill:url(#SVGID_00000150062982888092808260000013801711924739166882_);" d="
						M261.251,212.767c1.368,0.789,2.475,2.71,2.475,4.287c0,1.578-1.107,2.214-2.475,1.427c-1.366-0.788-2.473-2.708-2.473-4.284
						C258.778,212.619,259.885,211.979,261.251,212.767L261.251,212.767z M261.251,213.629c-0.954-0.549-1.727-0.104-1.727,0.999
						c0,1.102,0.773,2.441,1.727,2.993c0.955,0.55,1.729,0.105,1.729-0.998C262.98,215.522,262.206,214.178,261.251,213.629z"/>

						<linearGradient id="SVGID_00000058560535284949894250000004236967903339038081_" gradientUnits="userSpaceOnUse" x1="257.8294" y1="220.5886" x2="260.7531" y2="215.3141">
						<stop  offset="0" style="stop-color:#B6A89F"/>
						<stop  offset="1" style="stop-color:#A0938A"/>
					</linearGradient>
					<path style="fill-rule:evenodd;clip-rule:evenodd;fill:url(#SVGID_00000058560535284949894250000004236967903339038081_);" d="
						M261.251,212.767c0.992,0.572,1.847,1.742,2.242,2.943l-0.866-0.501c-0.315-0.66-0.814-1.256-1.375-1.579
						c-0.559-0.322-1.058-0.301-1.373-0.007l-0.867-0.501C259.406,212.375,260.26,212.195,261.251,212.767z"/>
				</g>
				<polygon style="fill-rule:evenodd;clip-rule:evenodd;fill:#63645E;" points="246.373,189.043 237.988,193.887 243.368,191.711
					266.729,205.95 273.836,199.957 251.753,186.869 				"/>
				<path style="fill-rule:evenodd;clip-rule:evenodd;fill:#3F4642;" d="M237.988,193.887l5.38-2.176L265.45,204.8l5.381,8.388
					v10.704l-1.702-0.981v-5.316c0-2.451,0.257-6.796-6.116-12.028c-5.223-4.289-14.574-8.345-16.316-9.352h-0.002l-0.001-0.001
					c-3.866-2.229-7.005-0.414-7.005,4.045l-0.008,5.322l-1.702-0.984L237.988,193.887z"/>

					<linearGradient id="SVGID_00000085237810138235476500000006763009577788234379_" gradientUnits="userSpaceOnUse" x1="258.8974" y1="198.1896" x2="253.4849" y2="207.5643">
					<stop  offset="0" style="stop-color:#272C26"/>
					<stop  offset="1" style="stop-color:#313834"/>
				</linearGradient>
				<path style="fill-rule:evenodd;clip-rule:evenodd;fill:url(#SVGID_00000085237810138235476500000006763009577788234379_);" d="
					M237.988,193.887l5.38-2.176L265.45,204.8l5.381,8.388v4.851l-1.717-0.99c-0.24-4.348-5.552-10.678-9.263-12.824l-13.155-8.011
					l-0.001-0.001c-3.709-2.139-6.749-0.554-6.989,3.517l-1.722-0.994L237.988,193.887z"/>
				<polygon style="fill-rule:evenodd;clip-rule:evenodd;fill:#63645E;" points="273.836,199.957 265.451,204.8 243.368,191.711
					251.753,186.869 				"/>
				<polygon style="fill-rule:evenodd;clip-rule:evenodd;fill:#4F5651;" points="273.836,199.957 265.451,204.8 270.831,213.187
					279.217,208.345 				"/>

					<linearGradient id="SVGID_00000065060675065072002120000004744748087923238812_" gradientUnits="userSpaceOnUse" x1="272.5806" y1="216.0331" x2="282.3116" y2="216.3729">
					<stop  offset="0" style="stop-color:#272C26"/>
					<stop  offset="1" style="stop-color:#313834"/>
				</linearGradient>

					<polygon style="fill-rule:evenodd;clip-rule:evenodd;fill:url(#SVGID_00000065060675065072002120000004744748087923238812_);" points="
					279.217,219.049 270.831,223.892 270.831,213.187 279.217,208.345 				"/>
			</g>
			<polygon style="fill-rule:evenodd;clip-rule:evenodd;fill:#83807E;" points="415.643,164.252 359.447,196.698 359.446,261.225
				415.643,228.78 			"/>
			<polygon style="fill-rule:evenodd;clip-rule:evenodd;fill:#00467C;" points="413.546,167.885 361.545,197.91 361.544,257.592
				413.546,227.569 			"/>
			<polygon style="fill-rule:evenodd;clip-rule:evenodd;fill:#DBD6CD;" points="232.316,121.853 359.447,196.699 415.643,164.252
				288.516,89.408 			"/>
			<polygon style="fill-rule:evenodd;clip-rule:evenodd;fill:#007CA9;" points="236.51,121.853 359.447,194.278 411.449,164.252
				288.515,91.829 			"/>
			<polygon style="fill-rule:evenodd;clip-rule:evenodd;fill:#C0B8AE;" points="232.316,121.853 359.447,196.699 359.446,261.225
				232.316,186.381 			"/>
			<polygon style="fill-rule:evenodd;clip-rule:evenodd;fill:#002279;" points="234.413,125.485 234.413,185.17 357.349,257.592
				357.35,197.91 			"/>
		</g>
	</g>
</g>
</svg>
