<?xml version="1.0" encoding="utf-8"?>
<!-- Generator: Adobe Illustrator 27.5.0, SVG Export Plug-In . SVG Version: 6.00 Build 0)  -->
<svg version="1.1" xmlns="http://www.w3.org/2000/svg" xmlns:xlink="http://www.w3.org/1999/xlink" x="0px" y="0px"
	 viewBox="0 0 500 500" style="enable-background:new 0 0 500 500;" xml:space="preserve">
<g id="BACKGROUND">
	<rect style="fill:#FFFFFF;" width="500" height="500"/>
</g>
<g id="OBJECTS">
	<g>
		<g style="opacity:0.2;">
			<path d="M453.791,225.012c1.566,0.909,2.564,5.356,3.335,7.162H218.321c1.718-4.004,1.377-7.035,5.57-7.162
				c4.471-0.126,8.981,0,13.465,0h213.087C451.164,225.012,453.147,224.645,453.791,225.012z M357.504,185.527
				c-12.328,0-24.795-0.568-37.098,0c-1.819,0.088-2.905-0.467-3.815,1.415c-0.783,1.579,0,5.431,0,7.174v18.265
				c-2.488,0-10.32,1.074-11.431-0.556c-0.77-1.124,0-5.785,0-7.061V194.57c0-3.777,0.164-3.688,2.943-6.177
				c4.446-3.979,8.892-7.97,13.338-11.962c4.522-4.055,9.044-8.109,13.566-12.164c2.45-2.198,2.147-2.867,4.572-0.758
				c8.968,7.743,17.658,15.827,26.475,23.734c3.246,2.918,4.231,3.057,4.231,7.326v17.81c-2.564,0-8.374,1.225-10.484,0
				c-1.579-0.909-0.947-3.044-0.947-5.419C358.855,204.625,360.245,185.527,357.504,185.527z M346.136,199.661V188.23
				c1.933,0,8.817-1.061,10.016,0.114c1.225,1.187,0,9.398,0,11.317H346.136z M356.152,202.364v10.016c-1.579,0-8.93,1.086-10.016,0
				c-1.124-1.124,0-8.349,0-10.016H356.152z M332.001,199.661V188.23c1.869,0,10.206-1.225,11.431,0c1.263,1.25,0,9.511,0,11.431
				H332.001z M343.433,202.364v10.016c-1.92,0-10.13,1.213-11.317,0c-1.162-1.2-0.114-8.084-0.114-10.016H343.433z M319.282,199.661
				V188.23c1.933,0,8.829-1.061,10.029,0.114c1.213,1.187,0,9.398,0,11.317H319.282z M329.311,202.364v10.016
				c-1.591,0-8.943,1.086-10.029,0c-1.112-1.124,0-8.349,0-10.016H329.311z M449.357,215.083v7.225H229.272
				c-0.556,0-2.488,0.341-2.943,0c-0.935-0.682-0.227-5.785-0.227-7.225H449.357z M245.377,154.277h171.48
				c3.259,0,9.41-1.238,12.48,0c2.324,0.935,3.676,6.012,4.825,8.374c8.097,16.585,16.18,33.157,24.277,49.729h-60.427
				c-1.933,0-23.443,1.339-24.934,0c-0.897-0.796-0.088-7.111-0.088-8.412v-10.509c1.238,1.112,3.158,3.739,4.686,4.194
				c2.362,0.707,2.514-0.493,1.629-2.173c-1.377-2.577-5.823-5.204-7.958-7.124c-8.766-7.869-17.545-15.726-26.311-23.595
				c-1.503-1.339-4.383-5.153-6.391-5.722c-2.274-0.644-4.156,2.072-5.785,3.537c-8.564,7.68-17.128,15.347-25.692,23.027
				c-3.246,2.905-7.781,5.836-10.395,9.322c-0.821,1.086-2.804,3.271,0.417,3.019c1.579-0.114,4.092-3.423,5.267-4.484v18.921
				H217.02C226.468,193.017,235.929,173.641,245.377,154.277z M181.564,238.742v69.636H58.221c-0.796,0-4.888,0.581-5.495,0
				c-0.669-0.632-0.101-4.686-0.101-5.634v-67.008c0-1.743-0.657-4.951,0-6.606c0.619-1.528,3.322-3.372,4.446-4.509
				c3.524-3.6,7.048-7.187,10.572-10.774c16.522-16.825,33.043-33.649,49.577-50.474c13.97,14.223,27.927,28.445,41.91,42.668
				c5.128,5.229,10.256,10.446,15.385,15.675c1.869,1.895,6.012,4.686,7.048,7.187C182.55,231.302,181.564,236.19,181.564,238.742z
				 M159.927,202.995c-3.676-3.739-7.351-7.478-11.014-11.204h75.155c-1.44,2.93-2.867,5.861-4.295,8.791
				c-1.667,3.41-5.04,7.97-5.735,11.734c-0.821,4.459,4.282,2.274,7.427,2.766c2.324,0.366,1.276-0.568,1.933,1.314
				c0.543,1.566,0,4.231,0,5.911c-2.855,0-3.486-0.051-4.787,2.362c-1.023,1.882-3.436,5.911-3.474,8.046
				c-0.051,3.423,3.714,1.768,6.113,2.147c3.057,0.48,2.147,0.985,2.147,4.396h-20.488c-4.522,0-6.555,0.846-9.587-2.248
				C182.183,225.668,171.055,214.338,159.927,202.995z M223.399,250.173v58.204h-33.788c-0.733,0-4.825,0.543-5.356-0.025
				c-0.518-0.556,0-4.219,0-4.926V231.63c3.385,3.448,7.364,9.966,12.353,10.332c7.894,0.581,16.054,0,23.961,0
				c1.996,0,2.198-0.392,2.829,0.783C224.22,244.299,223.399,248.43,223.399,250.173z M359.499,262.059v46.318h-28.306
				c-1.061,0-14.4,0.783-15.195,0c-0.467-0.467-0.051-3.36-0.051-4.067v-46.318h35.885c1.061,0,6.821-0.783,7.617,0
				C359.916,258.459,359.499,261.351,359.499,262.059z M365.145,260.909v47.468c-4.004,0-2.943-0.909-2.943-4.724v-39.321
				c0-1.667,1.01-7.25-0.404-8.64c-1.73-1.718-9.183-0.404-11.292-0.404h-32.538c-3.019,0-4.295-0.303-4.724,2.817
				c-0.581,4.345,0,9.183,0,13.553v36.719c-4.156,0-2.943-1.314-2.943-5.242v-50.79h44.563c2.526,0,6.417-0.758,8.842,0
				c1.882,0.568,0.745-0.505,1.44,0.973C365.941,254.998,365.145,259.065,365.145,260.909z M449.357,248.379v59.998h-77.568
				c-0.543,0-3.524,0.404-3.941-0.013c-0.657-0.669,0-5.381,0-6.265v-35.784c0-3.309,1.983-15.284-1.655-16.673
				c-2.349-0.909-6.821,0-9.309,0h-15.802c-3.486,0-32.083-2.122-33.485,1.693c-0.935,2.539,0,7.25,0,9.903v47.139h-65.164
				c-2.93,0-15.132,1.528-16.332-0.834c-1.238-2.413,0-8.678,0-11.355v-61.324h217.117c2.4,0,5.292-0.796,6.139,0.973
				C450.671,238.64,449.357,245.335,449.357,248.379z M452.06,308.377v-73.513c1.667,0,5.697,0.808,7.137,0
				c2.716-1.503-0.581-6.088-1.541-8.337c-0.404-0.909-0.745-2.703-1.465-3.398c-1.276-1.213-2.716,0-3.84-0.821
				c-0.985-0.733-0.291-5.697-0.291-7.225c2.804,0,9.84,1.516,9.625-2.198c-0.114-1.958-2.438-5.002-3.284-6.72
				c-5.191-10.648-10.395-21.296-15.587-31.944c-2.413-4.926-4.812-9.852-7.212-14.778c-0.909-1.857-1.882-5.596-3.436-7.036
				c-2.109-1.958-7.705-0.834-10.395-0.834H262.252c-5.242,0-11.545-0.96-16.724,0c-4.636,0.859-7.2,10.989-9.107,14.892
				c-2.678,5.507-5.368,11.014-8.059,16.521c-0.707,1.453-1.819,5.318-3.208,6.101c-1.528,0.859-6.025,0-7.73,0h-66.781
				c-1.238,0-3.36,0.392-4.484-0.101c-2.981-1.301-6.29-6.417-8.526-8.69c-4.282-4.345-8.551-8.703-12.821-13.048
				c-1.516-1.541-4.838-6.543-7.111-6.947c-1.756-0.316-3.221,1.996-4.358,3.158c-15.675,15.953-31.351,31.919-47.013,47.872
				c-5.217,5.305-10.421,10.598-15.625,15.903c-1.857,1.895-3.713,3.777-5.57,5.671c-1.806,1.844-4.32,3.726-5.76,5.874
				c-1.162,1.718-1.528,3.84,1.314,2.501c3.297-1.541,6.631-6.745,9.233-9.398v76.494H0v2.703h183.952
				c24.05,0,48.099,0.013,72.162,0.013h149.174c24.467,0,67.152-0.013,94.713-0.013v-2.703H452.06z"/>
			<path d="M152.25,248.255c-1.2-2.789-2.549-9.252-5.402-10.486c-1.497-0.648-4.707,0-6.3,0c-10.735,0-21.471,0-32.206,0
				c-4.932,0-9.864,0-14.796,0c-1.577,0-4.866-0.669-6.337,0.111c-1.773,0.94-5.143,8.508-5.064,10.453
				c0.199,4.873,8.912-0.131,11.103,1.995c0.871,0.845,0.128,6.139,0.128,7.415c0,5.577,0,11.154,0,16.732
				c0,6.979,0,13.958,0,20.938c0,4.202,0.84,4.36,4.608,4.36c4.699,0,9.399,0,14.098,0c5.793,0,11.587,0,17.38,0
				c2.731,0,7.611,0.982,10.201,0c3.113-1.18,1.639-17.121,1.639-20.311c0-9.711,0-19.422,0-29.133
				C142.621,250.327,154.108,251.181,152.25,248.255z M115.988,250.327c0,6.159,0,12.318,0,18.477c-3.147,0-6.294,0-9.441,0
				c-1.67,0-9.153,1.111-10.401,0c-0.88-0.783-0.069-7.589-0.069-8.726c0-3.251,0-6.501,0-9.752
				C102.713,250.327,109.351,250.327,115.988,250.327z M138.601,290.003c-3.147,0-6.294,0-9.442,0c-1.671,0-9.152,1.111-10.402,0
				c-0.881-0.783-0.069-7.599-0.069-8.736c0-3.254,0-6.508,0-9.763c3.147,0,6.294,0,9.442,0c1.671,0,9.152-1.111,10.402,0
				c0.881,0.783,0.069,7.599,0.069,8.736C138.601,283.494,138.601,286.748,138.601,290.003z M115.988,290.003
				c-3.147,0-6.294,0-9.441,0c-1.671,0-9.152,1.111-10.401,0c-0.881-0.783-0.069-7.599-0.069-8.736c0-3.254,0-6.508,0-9.763
				c3.147,0,6.294,0,9.441,0c1.671,0,9.152-1.111,10.401,0c0.881,0.783,0.069,7.599,0.069,8.736
				C115.988,283.494,115.988,286.748,115.988,290.003z M138.601,297.07c-8.302,0-16.604,0-24.907,0c-4.756,0-9.511,0-14.267,0
				c-4.066,0-3.352-0.072-3.352-4.365c8.302,0,16.604,0,24.907,0c4.756,0,9.511,0,14.267,0
				C139.315,292.706,138.601,292.778,138.601,297.07z M138.601,268.804c-3.147,0-6.294,0-9.442,0c-1.67,0-9.153,1.111-10.402,0
				c-0.88-0.783-0.069-7.589-0.069-8.726c0-3.251,0-6.501,0-9.752c3.147,0,6.294,0,9.442,0c1.67,0,9.153-1.111,10.402,0
				c0.88,0.783,0.069,7.589,0.069,8.726C138.601,262.303,138.601,265.553,138.601,268.804z M140.161,247.626
				c-3.116-0.488-6.659-0.021-9.801-0.021c-6.605,0-13.21,0-19.815,0c-8.387,0-16.771,0.021-25.157,0.021
				c0.698-1.622,1.734-6.295,3.143-7.157c0.896-0.548,4.012,0,5.004,0c7.893,0,15.785,0,23.678,0s15.785,0,23.678,0
				c1.054,0,4.032-0.553,4.967,0c1.373,0.813,2.508,5.592,3.181,7.157C146.08,247.626,143.121,247.626,140.161,247.626z"/>
			<path d="M277.042,249.941c-4.948,0-9.897,0-14.845,0c-3.736,0-7.472,0-11.208,0c-2.072,0-5.193-0.618-7.2,0
				c-3.376,1.04-2.018,6.485-2.018,9.646c0,7.156,0,14.311,0,21.467c0,2.905-1.037,9.728,0,12.393
				c1.26,3.238,10.123,1.593,13.087,1.593c6.707,0,13.533,0.381,20.229,0c4.586-0.261,3.304-4.002,3.304-7.957
				C278.393,283.084,279.813,249.941,277.042,249.941z M244.473,286.686c0-5.224,0-10.449,0-15.673c2.546,0,5.092,0,7.639,0
				c1.039,0,5.991-0.648,6.621,0.086c0.893,1.043,0,6.927,0,8.261c0,2.442,0,4.884,0,7.326
				C253.979,286.686,249.226,286.686,244.473,286.686z M261.433,271.013c2.546,0,5.092,0,7.639,0c1.039,0,5.991-0.648,6.621,0.086
				c0.893,1.043,0,6.927,0,8.261c0,2.442,0,4.884,0,7.326c-2.546,0-5.092,0-7.639,0c-1.039,0-5.991,0.648-6.621-0.086
				c-0.893-1.043,0-6.927,0-8.261C261.433,275.897,261.433,273.455,261.433,271.013z M275.692,268.312c-2.546,0-5.092,0-7.639,0
				c-1.039,0-5.991,0.648-6.621-0.086c-0.893-1.043,0-6.926,0-8.26c0-2.442,0-4.883,0-7.325c2.546,0,5.092,0,7.639,0
				c1.039,0,5.991-0.648,6.621,0.086c0.893,1.042,0,6.926,0,8.26C275.692,263.429,275.692,265.871,275.692,268.312z
				 M258.732,252.641c0,5.224,0,10.447,0,15.671c-2.546,0-5.092,0-7.639,0c-1.039,0-5.991,0.648-6.621-0.086
				c-0.893-1.043,0-6.926,0-8.26c0-2.442,0-4.883,0-7.325C249.226,252.641,253.979,252.641,258.732,252.641z M244.473,292.339
				c0-0.984,0-1.969,0-2.953c6.067,0,12.134,0,18.2,0c3.47,0,6.94,0,10.409,0c2.924,0,2.609-0.176,2.609,2.953
				C265.286,292.339,254.879,292.339,244.473,292.339z"/>
			<path d="M433.014,249.941c-4.948,0-10.582,0-15.53,0c-3.736,0-7.472,0-11.208,0c-2.072,0-5.193-0.618-7.2,0
				c-3.376,1.04-2.018,6.485-2.018,9.646c0,7.156,0,14.311,0,21.467c0,2.905-1.037,9.728,0,12.393
				c1.26,3.238,10.123,1.593,13.087,1.593c6.706,0,13.533,0.381,20.229,0c4.586-0.261,3.304-4.002,3.304-7.957
				C433.679,283.084,435.784,249.941,433.014,249.941z M399.76,286.686c0-5.224,0-10.449,0-15.673c2.546,0,5.092,0,7.638,0
				c1.039,0,5.991-0.648,6.62,0.086c0.893,1.042,0,6.927,0,8.261c0,2.442,0,4.884,0,7.326
				C409.266,286.686,404.513,286.686,399.76,286.686z M416.719,271.013c2.546,0,5.092,0,7.639,0c1.039,0,5.991-0.648,6.621,0.086
				c0.893,1.043,0,6.927,0,8.261c0,2.442,0,4.884,0,7.326c-2.546,0-5.092,0-7.639,0c-1.039,0-5.991,0.648-6.621-0.086
				c-0.893-1.043,0-6.927,0-8.261C416.719,275.897,416.719,273.455,416.719,271.013z M430.978,268.312c-2.546,0-5.092,0-7.639,0
				c-1.039,0-5.991,0.648-6.621-0.086c-0.893-1.043,0-6.926,0-8.26c0-2.442,0-4.883,0-7.325c2.546,0,5.092,0,7.639,0
				c1.039,0,5.991-0.648,6.621,0.086c0.893,1.042,0,6.926,0,8.26C430.978,263.429,430.978,265.871,430.978,268.312z
				 M414.018,252.641c0,5.224,0,10.447,0,15.671c-2.546,0-5.092,0-7.638,0c-1.039,0-5.991,0.648-6.62-0.086
				c-0.893-1.042,0-6.926,0-8.26c0-2.442,0-4.883,0-7.325C404.513,252.641,409.266,252.641,414.018,252.641z M399.76,292.339
				c0-0.984,0-1.969,0-2.953c6.067,0,12.133,0,18.2,0c3.47,0,6.939,0,10.409,0c2.924,0,2.609-0.176,2.609,2.953
				C420.572,292.339,410.166,292.339,399.76,292.339z"/>
			<path d="M108.859,227.18c3.696,0,7.391,0,11.087,0c3.45,0,6.866,1.161,7.223-2.877c0.634-7.177,0-14.733,0-21.92
				c0-2.168,0.984-7.094,0-9.06c-1.324-2.644-7.818-1.35-10.359-1.35c-2.563,0-7.996-1.178-9.301,1.408
				c-1.035,2.051,0,7.257,0,9.512C107.509,204.643,106.49,227.18,108.859,227.18z M124.468,217.413
				c-2.401,0-4.942,0.775-5.779-1.042c-0.955-2.07,0-6.608,0-8.977c2.401,0,4.942-0.775,5.779,1.042
				C125.423,210.507,124.468,215.045,124.468,217.413z M115.988,217.413c-2.401,0-4.941,0.774-5.779-1.042
				c-0.955-2.07,0-6.608,0-8.977c2.401,0,4.941-0.774,5.779,1.042C116.943,210.507,115.988,215.045,115.988,217.413z
				 M124.468,224.48c-3.521,0-7.041,0-10.562,0c-4.285,0-3.697,0.109-3.697-4.366c3.521,0,7.041,0,10.562,0
				C125.056,220.114,124.468,220.005,124.468,224.48z M124.468,204.694c-2.401,0-4.942,0.775-5.779-1.042
				c-0.955-2.071,0-6.609,0-8.978c2.401,0,4.942-0.775,5.779,1.042C125.423,197.787,124.468,202.325,124.468,204.694z
				 M115.988,194.674c0,3.34,0,6.68,0,10.02c-2.401,0-4.941,0.774-5.779-1.042c-0.955-2.071,0-6.609,0-8.978
				C112.135,194.674,114.062,194.674,115.988,194.674z"/>
		</g>
		<g style="opacity:0.2;">
			<path d="M35.198,149.981c-0.113-2.214-0.356-4.351-0.304-6.481c0.099-4.023,3.88-7.834,7.85-8.124
				c2.878-0.21,4.743,1.452,6.533,3.678c0.636-3.71,2.111-6.752,4.794-9.128c2.849-2.522,6.005-3.682,9.772-2.245
				c3.72,1.419,5.391,4.42,6.076,8.065c0.352,1.873,0.358,3.811,0.529,5.828c3.581-2.119,7.396-3.328,11.171-0.549
				c3.787,2.787,3.283,6.865,2.457,11.15c2.672-1.13,4.98-1.038,7.31,0.065c2.591,1.227,4.496,2.993,4.692,5.952
				c0.201,3.02-1.382,5.363-3.916,6.691c-1.92,1.006-4.172,1.509-6.337,1.897c-8.67,1.553-17.431,1.587-26.197,1.242
				c-5.961-0.235-11.925-0.468-17.878-0.847c-4.247-0.27-8.272-1.484-12.028-3.52c-1.245-0.675-2.059-1.673-2.67-2.824
				c-0.591-1.115-0.829-2.379-0.715-3.636C26.956,150.354,31.185,149.522,35.198,149.981z M37.529,150.055
				c0.281,1.088-0.628,2.119-1.742,1.974c-0.688-0.089-1.318-0.154-1.947-0.156c-2.364-0.007-5.368,2.187-5.731,4.043
				c-0.587,2.999,0.581,4.949,3.597,6.326c3.571,1.629,7.302,2.459,11.234,2.502c2.476,0.027,4.952,0.023,7.423,0.185
				c10.888,0.713,21.778,1.169,32.616-0.326c2.787-0.384,5.568-1.107,8.222-2.044c1.586-0.56,2.709-2.044,2.681-3.908
				c-0.029-1.952-1.315-3.14-2.919-4.009c-2.901-1.573-5.611-0.948-8.26,0.697c-0.402,0.25-0.873,0.666-1.489,0.296
				c-0.615-0.37-0.139-1.02-0.022-1.482c0.422-1.673,1.037-3.303,1.376-4.99c1.235-6.138-4.876-9.937-11.681-5.207
				c-0.422,0.293-1.141,1.05-1.775,1.723c-0.504,0.535-1.4,0.206-1.449-0.527c-0.028-0.417-0.04-0.792-0.037-0.976
				c0.062-2.92,0.588-5.945,0.037-8.744c-1.231-6.262-6.287-8.072-11.505-4.397c-2.919,2.055-4.424,4.979-5.296,8.334
				c-0.146,0.561-0.407,1.093-0.685,1.62c-0.309,0.585-1.073,0.747-1.593,0.337c-0.464-0.366-0.912-0.744-1.256-1.2
				c-2.267-3.009-5.676-3.271-8.292-0.541c-2.153,2.247-2.793,4.914-2.135,7.909C37.087,148.328,37.297,149.157,37.529,150.055z"/>
			<path d="M386.19,135.533c-2.286-2.24-1.615-6.152,1.293-7.489c1.658-0.763,3.434-1.269,5.064-1.857
				c-0.531-1.396-1.178-2.929-1.699-4.504c-0.738-2.232-0.362-4.404,0.577-6.504c1.538-3.438,6.32-4.754,10.086-2.714
				c1.076,0.583,2.029,1.392,3.088,2.131c1.645-4.289,4.796-7.156,9.27-8.375c5.762-1.569,10.499,1.495,11.55,7.357
				c0.312,1.739,0.349,3.528,0.549,5.691c0.716-0.675,1.29-1.296,1.943-1.819c2.693-2.153,5.69-2.405,8.084-0.719
				c2.118,1.492,2.863,4.504,1.826,7.604c-0.351,1.049-0.826,2.056-1.336,3.308c4.014-0.631,6.895,0.686,8.778,3.701
				c0.898,1.439,1.123,3.261,0.365,4.778c-1.009,2.017-3.886,4.261-11.967,4.261c-10.077,0.226-20.159,0.172-30.24,0.215
				C389.843,140.599,387.921,137.229,386.19,135.533z M396.127,127.643c0.376,0.679-0.148,1.5-0.923,1.455
				c-0.68-0.04-1.356-0.055-2.014,0.05c-1.731,0.276-3.516,0.624-5.092,1.346c-1.403,0.642-1.734,2.109-0.467,3.216
				c1.417,1.238,2.956,2.519,4.673,3.197c4.216,1.664,8.702,0.91,13.093,0.929c8.507,0.036,17.014,0.142,25.52,0.077
				c4.097-0.031,8.178-0.423,11.889-2.481c1.289-0.715,1.411-1.712,0.654-2.79c-1.276-1.816-3.013-2.924-5.311-2.947
				c-0.933-0.009-1.874,0.101-2.799,0.016c-1.51-0.139-1.781-0.739-1.11-2.113c0.595-1.217,1.255-2.416,1.703-3.688
				c0.646-1.833,0.815-3.709-0.862-5.152c-1.53-1.316-3.711-1.32-5.7,0.105c-1.61,1.154-3.033,2.566-4.585,3.805
				c-0.389,0.31-1.182,0.668-1.449,0.396c-0.267-0.272-0.351-0.959-0.298-1.512c0.152-1.603,0.547-3.189,0.623-4.792
				c0.166-3.521-1.716-7.072-4.146-7.972c-5.673-2.1-12.395,2.576-13.091,7.271c-0.005,0.034-0.011,0.069-0.018,0.103
				c-0.263,1.294-1.993,1.818-2.85,0.814c-0.005-0.005-0.009-0.011-0.014-0.016c-2.085-2.509-4.695-3.229-7.82-2.684
				c-1.566,0.273-2.439,1.242-2.813,2.625c-0.699,2.583-0.295,5.055,1.169,7.311C394.635,125.051,395.502,126.516,396.127,127.643z"
				/>
			<path d="M317.037,49.997c-0.941-2.032-2.091-3.864-2.62-5.861c-0.454-1.713-0.535-3.684-0.178-5.416
				c0.576-2.794,3.243-4.146,6.265-3.504c2.711,0.577,5.224,1.601,7.231,3.976c0.208-0.626,0.402-1.051,0.49-1.496
				c1.045-5.254,4.674-8.25,9.306-10.035c4.681-1.803,9.03,1.162,10.145,6.399c0.821,3.859,0.077,7.5-1.178,11.111
				c-0.197,0.567-0.433,1.12-0.569,1.469c1.547,0.554,3.099,0.866,4.389,1.623c2.512,1.474,3.903,3.808,3.262,6.738
				c-0.613,2.801-2.807,4.393-5.491,4.975c-2.29,0.497-4.669,0.639-7.018,0.794c-2.85,0.188-5.718,0.415-8.563,0.285
				c-5.172-0.236-10.45,0.274-15.421-1.742c-0.796-0.323-1.58-0.728-2.284-1.218c-1.523-1.059-2.483-2.461-2.157-4.425
				c0.316-1.908,1.682-2.789,3.385-3.307C316.382,50.259,316.723,50.113,317.037,49.997z M341.957,58.183
				c2.508-0.192,5.112-0.502,7.433-1.389c2.726-1.042,2.795-3.893,0.545-5.77c-1.708-1.425-3.545-1.558-5.597-1.066
				c-0.495,0.118-1.242-0.04-1.591-0.37c-0.225-0.213-0.039-1.011,0.145-1.475c0.5-1.262,1.185-2.455,1.638-3.732
				c1.133-3.193,1.782-6.441,0.945-9.849c-1.028-4.183-4.346-5.906-8.21-4.112c-4.505,2.092-7.27,5.452-7.544,10.599
				c-0.036,0.669-0.052,1.691-0.644,1.979c-0.592,0.288-1.434-0.615-1.909-1.141c-2.127-2.359-4.591-3.965-7.881-3.941
				c-2.459,0.018-3.802,1.684-3.193,4.049c0.752,2.921,2.091,5.534,4.173,7.771c0.2,0.215,0.352,0.475,0.481,0.756
				c0.345,0.746-0.053,1.641-0.839,1.882c-0.241,0.074-0.483,0.141-0.728,0.196c-0.961,0.215-1.983,0.229-2.899,0.554
				c-0.567,0.201-1.327,0.783-1.378,1.26c-0.055,0.509,0.5,1.363,1.006,1.599c1.615,0.755,3.292,1.658,5.015,1.841
				C324.927,58.246,338.989,58.41,341.957,58.183z"/>
		</g>
	</g>
	<g>
		<g>
			<path style="fill:#F46C7A;" d="M69.037,70.513c-6.26,0-15.5,4.61-15.5,14.48c0,9.87,8.35,30.05,13.79,30.05
				s15.5-18.91,15.5-29.98S75.747,70.513,69.037,70.513z M68.187,92.873c-4.92,0-7.01-2.35-7.01-6.26c0-3.9,2.63-7.13,6.96-7.13
				c5,0,7.18,3.9,7.18,6.82C75.317,89.234,73.097,92.873,68.187,92.873z"/>
			<path style="opacity:0.2;fill:#FFFFFF;" d="M69.037,70.513c-6.26,0-15.5,4.61-15.5,14.48c0,0.85,0.06,1.77,0.18,2.76
				c1.3-8.29,9.57-12.18,15.32-12.18c6.15,0,12.61,2.92,13.64,11.94c0.1-0.85,0.15-1.67,0.15-2.45
				C82.827,73.993,75.747,70.513,69.037,70.513z"/>
			<g>
				<path d="M83.487,82.286c1.041,4.4-0.058,8.59-1.033,12.895c-0.913,4.029-3.142,7.868-5.383,11.313
					c-1.189,1.827-2.66,3.465-4.088,5.107c-1.157,1.331-2.6,3.709-4.177,4.54c-3.16,1.666-7.112-5.404-8.542-7.405
					c-4.497-6.293-8.407-15.27-7.883-23.177c0.288-4.347,1.879-8.716,5.023-11.822c1.422-1.404,3.135-2.436,4.993-3.163
					C73.273,66.316,80.741,70.678,83.487,82.286z M80.673,92.11c0.874-3.982,0.792-8.155-0.571-11.997
					c-0.74-2.087-1.782-4.036-3.395-5.562c-3.183-3.011-7.851-2.966-11.814-1.748c-9.137,2.808-11.302,12.063-9.13,20.521
					c1.692,6.586,5.31,12.395,9.185,17.916c0.381,0.544,0.787,1.069,1.213,1.579c0.912,1.091,0.952,1.243,2.068,0.158
					c0.548-0.533,1.038-1.118,1.542-1.691c3.206-3.651,5.816-7.403,8.197-11.637C79.313,97.256,80.1,94.719,80.673,92.11z"/>
				<path d="M68.013,94.58c-4.396,0.222-7.756-2.979-7.869-7.343c-0.122-4.68,3.03-8.804,7.94-9.199
					c4.063-0.326,8.246,4.797,8.516,8.543C76.941,91.302,72.475,94.832,68.013,94.58z M62.534,86.779
					c0.059,8.146,13.722,4.936,11.208-1.233c-1.125-2.761-4.158-5.512-7.215-4.461C63.943,81.974,62.333,83.985,62.534,86.779z"/>
			</g>
		</g>
		<g>
			<path style="fill:#86C9EA;" d="M442.427,70.513c-6.26,0-15.5,4.61-15.5,14.48c0,9.87,8.35,30.05,13.79,30.05
				s15.5-18.91,15.5-29.98S449.137,70.513,442.427,70.513z M441.577,92.873c-4.92,0-7.01-2.35-7.01-6.26c0-3.9,2.63-7.13,6.96-7.13
				c5,0,7.18,3.9,7.18,6.82C448.707,89.234,446.487,92.873,441.577,92.873z"/>
			<path style="opacity:0.2;fill:#FFFFFF;" d="M442.427,70.513c-6.26,0-15.5,4.61-15.5,14.48c0,0.85,0.06,1.77,0.18,2.76
				c1.3-8.29,9.57-12.18,15.32-12.18c6.15,0,12.61,2.92,13.64,11.94c0.1-0.85,0.15-1.67,0.15-2.45
				C456.217,73.993,449.137,70.513,442.427,70.513z"/>
			<g>
				<path d="M456.878,82.286c1.041,4.4-0.058,8.59-1.033,12.895c-0.913,4.029-3.142,7.868-5.383,11.313
					c-1.189,1.827-2.66,3.465-4.088,5.107c-1.157,1.331-2.6,3.709-4.177,4.54c-3.16,1.666-7.112-5.404-8.542-7.405
					c-4.497-6.293-8.407-15.27-7.883-23.177c0.288-4.347,1.879-8.716,5.023-11.822c1.422-1.404,3.135-2.436,4.993-3.163
					C446.663,66.316,454.131,70.678,456.878,82.286z M454.063,92.11c0.874-3.982,0.792-8.155-0.571-11.997
					c-0.74-2.087-1.782-4.036-3.395-5.562c-3.183-3.011-7.851-2.966-11.814-1.748c-9.137,2.808-11.302,12.063-9.13,20.521
					c1.692,6.586,5.31,12.395,9.185,17.916c0.381,0.544,0.787,1.069,1.213,1.579c0.912,1.091,0.952,1.243,2.068,0.158
					c0.548-0.533,1.038-1.118,1.542-1.691c3.206-3.651,5.816-7.403,8.197-11.637C452.703,97.256,453.49,94.719,454.063,92.11z"/>
				<path d="M441.404,94.58c-4.396,0.222-7.756-2.979-7.869-7.343c-0.122-4.68,3.03-8.804,7.94-9.199
					c4.063-0.326,8.246,4.797,8.516,8.543C450.332,91.302,445.865,94.832,441.404,94.58z M435.925,86.779
					c0.059,8.146,13.722,4.936,11.208-1.233c-1.125-2.761-4.158-5.512-7.215-4.461C437.333,81.974,435.723,83.985,435.925,86.779z"
					/>
			</g>
		</g>
		<g>
			<g>
				<path d="M96.293,94.365c-2.347,0-5.937,0.309-5.937-1.549c0-1.556,3.513-1.435,6.406-1.435c2.893,0,5.628-0.329,5.628,1.841
					C102.39,94.459,98.639,94.365,96.293,94.365z"/>
			</g>
			<g>
				<path d="M124.225,94.365c-2.347,0-5.937,0.309-5.937-1.549c0-1.556,3.513-1.435,6.406-1.435s5.628-0.329,5.628,1.841
					C130.322,94.459,126.572,94.365,124.225,94.365z"/>
			</g>
			<g>
				<path d="M152.157,94.365c-2.347,0-5.937,0.309-5.937-1.549c0-1.556,3.513-1.435,6.406-1.435s5.628-0.329,5.628,1.841
					C158.254,94.459,154.504,94.365,152.157,94.365z"/>
			</g>
			<g>
				<path d="M180.089,94.365c-2.347,0-5.937,0.309-5.937-1.549c0-1.556,3.513-1.435,6.406-1.435s5.628-0.329,5.628,1.841
					C186.186,94.459,182.436,94.365,180.089,94.365z"/>
			</g>
			<g>
				<path d="M319.75,94.365c-2.347,0-5.937,0.309-5.937-1.549c0-1.556,3.513-1.435,6.406-1.435s5.628-0.329,5.628,1.841
					C325.848,94.459,322.097,94.365,319.75,94.365z"/>
			</g>
			<g>
				<path d="M347.683,94.365c-2.347,0-5.937,0.309-5.937-1.549c0-1.556,3.513-1.435,6.406-1.435s5.628-0.329,5.628,1.841
					C353.78,94.459,350.029,94.365,347.683,94.365z"/>
			</g>
			<g>
				<path d="M375.615,94.365c-2.347,0-5.937,0.309-5.937-1.549c0-1.556,3.513-1.435,6.406-1.435s5.628-0.329,5.628,1.841
					C381.712,94.459,377.962,94.365,375.615,94.365z"/>
			</g>
			<g>
				<path d="M403.547,94.365c-2.347,0-5.937,0.309-5.937-1.549c0-1.556,3.513-1.435,6.406-1.435s5.628-0.329,5.628,1.841
					C409.644,94.459,405.894,94.365,403.547,94.365z"/>
			</g>
		</g>
		<g>
			<path style="fill:#9FDAFE;" d="M229.707,54.401c6.634,0.046,13.267,0.092,19.901,0.138c3.085,0.022,6.171,0.044,9.256,0.066
				c1.803,0.013,5.794-0.71,7.075,0.864c1.493,1.835,1.008,5.618,1,7.781c-0.003,0.895-0.428,2.755,0.07,3.451
				c0.587,0.82,1.745,0.635,2.627,0.635c6.24-0.004,12.845-0.107,19.083,0.032c1.438,0.032,2.857,0.092,3.677,1.287
				c0.705,1.028,1.623,1.863,2.375,2.859c1.665,2.206,3.118,4.515,4.855,6.673c1.601,1.988,3.419,4.218,4.383,6.605
				c1.095,2.711,1.371,6.052,1.436,8.938c0.069,3.075,0.138,6.15,0.203,9.225c0.033,1.537,0.065,3.075,0.096,4.613
				c0.016,0.804,0.414,2.693-0.309,3.394c-0.564,0.547-1.836,0.371-2.52,0.376c-1.567,0.012-3.135,0.006-4.703,0
				c-0.967-0.004-3.299-0.493-4.186,0.004c-0.833,0.466-0.596,2.032-0.834,2.913c-1.475,5.457-7.336,7.901-12.576,6.431
				c-2.31-0.648-4.316-2.231-5.614-4.228c-0.646-0.995-1.202-2.139-1.52-3.285c-0.42-1.514-0.029-1.836-1.542-2.065
				c-2.799-0.423-6.276,0.161-9.123,0.16c-3.438-0.001-6.875-0.004-10.313-0.009c-6.559-0.01-13.129,0.067-19.686-0.085
				c-1.716-0.04-3.436-0.169-5.152-0.182c-1.485-0.011-1.628-0.047-1.802,1.465c-0.259,2.25-1.107,4.197-2.873,5.668
				c-3.646,3.038-9.481,3.922-13.667,1.499c-1.896-1.097-3.014-2.85-3.725-4.876c-0.421-1.201-0.71-2.396-0.863-3.657
				c-0.209-1.718-0.616-1.318-2.395-1.319c-1.367-0.001-2.733,0-4.099-0.054c-0.966-0.038-3.066,0.158-3.949-0.312
				c-1.865-0.993-0.873-5.919-0.87-7.795c0.011-7.466,0.023-14.931,0.036-22.397c0.006-3.422,0.012-6.843,0.019-10.265
				c0.004-1.866,0.004-3.733,0.012-5.599c0.008-1.763,0.111-3.738,0.111-6.163c0-2.424,2.982-2.745,4.144-2.744
				c3.671,0.004,7.343,0.006,11.014,0.007C210.542,54.452,229.706,54.519,229.707,54.401z M229.818,57.117
				c0,0.203-16.009,0.109-17.652,0.108c-2.787-0.001-5.574-0.002-8.362-0.004c-1.53-0.001-7.579-0.828-8.219,0.544
				c-0.423,0.907,0.005,2.788,0.005,3.826c-0.001,1.265-0.394,2.113,0.761,2.541c1.099,0.408,3.338-0.077,4.477-0.102
				c1.492-0.032,2.985-0.063,4.477-0.084c6.199-0.09,12.401-0.031,18.601-0.008c6.104,0.023,20.764,0.084,26.869,0.084
				c2.893,0,2.787,2.231,2.77,3.18c-0.054,3.058,0.024,6.124,0.036,9.183c0.011,2.666,0.533,5.878,0.009,8.486
				c-0.574,2.861-4.349,2.096-6.489,2.096c-6.013,0-19.026,0.002-25.039,0.005c-6.018,0.002-12.037,0.005-18.055,0.007
				c-1.555,0.001-3.111,0.001-4.666-0.004c-0.829-0.003-2.874-0.14-3.426,0.476c-0.309,0.345-0.142,1.549-0.142,2.066
				c0,0.9,1.726,0.589,2.804,0.543c1.636-0.071,5.151-0.182,6.513,0.928c1.267,1.033,2.015,4.679,0.961,5.986
				c-1.355,1.68-5.379,1.151-7.268,1.254c-0.6,0.033-2.341-0.226-2.738,0.214c-0.252,0.279-0.464,1.435-0.201,1.8
				c0.672,0.937,5.904,0.184,7.1,0.172c2.725-0.028,5.869,0.535,8.441-0.281c2.396-0.761,4.864,0.115,7.329,0.161
				c2.96,0.055,5.922,0.032,8.882,0.033c6.297,0,35.898,0.468,36.531-0.047c0.65-0.53,0.358-2.04,0.358-2.866
				c0.001-1.695,0.003-3.389,0.005-5.084c0.004-3.389,0.009-6.778,0.012-10.167c0.006-6.763-0.067-13.509-0.261-20.27
				c-0.027-0.946,0.444-3.452-0.185-4.24c-0.609-0.764-2.838-0.61-3.692-0.591c-3.27,0.073-6.54,0.056-9.811,0.058
				C243.641,57.122,236.729,57.117,229.818,57.117z M195.641,78.398c9.258-0.128,34.802-0.3,44.062-0.314
				c1.361-0.002,4.156-0.542,5.217,0.377c2.165,1.876-1.497,2.111-2.625,2.103c-4.807-0.031-25.899-0.09-30.706-0.09
				c-4.479,0-8.959,0.028-13.438,0.042c-1.016,0.003-2.082-0.318-2.501,0.584c-0.507,1.09,0.092,2.824,0.982,3.044
				c1.986,0.491,4.694,0.013,6.751,0.018c2.476,0.006,4.953,0.012,7.429,0.019c4.814,0.012,9.629,0.025,14.443,0.036
				c4.844,0.011,16.688,0.022,21.533,0.042c1.471,0.006,3.991,0.669,4.563-0.813c0.253-0.655-0.008-2.197-0.004-2.911
				c0.007-1.181,0.016-2.362,0.024-3.544c0.015-2.215,0.03-4.429,0.052-6.644c0.017-1.761,0.786-3.824-1.305-3.967
				c-4.765-0.324-16.658-0.031-21.436-0.047c-9.602-0.032-20.762-0.046-30.365-0.112c-1.238-0.008-2.733,0.015-2.733,1.229
				c0,1.173-0.281,3.65,0.716,4.076c0.8,0.343,2.784,0.03,3.665,0.041c1.069,0.013,2.138,0.026,3.207,0.039
				c2.443,0.03,4.887,0.061,7.33,0.086c5.264,0.055,26.814,0.076,32.078,0.1c0.589,0.003,2.021-0.271,2.464,0.208
				c0.562,0.609-0.025,1.508-0.52,1.83c-0.813,0.529-2.637,0.167-3.573,0.169c-1.215,0.002-2.43,0.004-3.646,0.006
				c-5.165,0.008-26.615,0.013-31.78,0.025c-2.721,0.006-5.48-0.104-8.197,0.048c-1.29,0.072-1.444-0.04-1.674,1.13
				C195.413,76.433,195.641,77.165,195.641,78.398z M266.961,84.772c-0.178,0-0.097,8.233-0.098,9.236
				c-0.001,1.537-0.054,3.082-0.01,4.618c0.068,2.416,1.472,1.721,3.581,1.758c1.428,0.025,2.849,0.155,4.277,0.186
				c1.132,0.025,2.728,0.074,3.782-0.005c0.954-0.071,2.196-0.428,3.208-0.677c1.824-0.448,3.188-0.676,4.983,0.001
				c2.523,0.952,4.533,1.123,7.233,1.125c1.717,0.001,3.433,0.009,5.15,0.007c1-0.001,3.528,0.471,4.135-0.409
				c1.648-2.386-3.284-1.876-4.002-1.876c-2.262,0.002-5.758,0.327-7.038-2.064c-0.94-1.756-0.173-4.284,1.685-5.092
				c1.019-0.444,2.432-0.417,3.514-0.495c1.336-0.096,3.652,0.069,4.894-0.399c1.264-0.477,0.355-4.261-0.934-4.819
				c-0.793-0.343-3.4-0.154-4.427-0.143c-2.021,0.022-4.042,0.023-6.063,0.031c-1.033,0.004-1.835-0.261-2.38,0.56
				c-0.588,0.884-0.371,3.036-0.759,4.073c-0.904,2.415-3.153,3.323-5.62,2.551c-1.953-0.612-2.484-2.31-2.894-4.156
				c-0.207-0.93-0.074-2.655-1.043-3.149c-1.127-0.575-3.352-0.034-4.627-0.226c-3.454-0.52-2.621-3.946-2.621-6.7
				c0-1.981,0.048-3.96,0.104-5.94c0.029-1.026,0.53-2.778-0.405-3.321c-0.386-0.224-3.057-0.409-3.414-0.158
				c-0.661,0.466-0.209,2.94-0.209,3.597C266.96,76.849,266.961,80.811,266.961,84.772z M280.951,69.416
				c0,0.066-5.351,0.037-5.883,0.033c-2.571-0.015-2.02,0.547-1.927,2.858c0.089,2.207,0.057,4.425,0.066,6.633
				c0.006,1.461-0.608,3.789,0.807,4.342c0.82,0.321,4.149,0.014,4.556-0.782c0.22-0.431,0.042-1.673,0.087-2.119
				c0.111-1.088,0.349-2.292,0.878-3.263c1.616-2.964,5.38-2.805,7.318-0.255c1.022,1.344,1.521,3.02,1.767,4.662
				c0.312,2.079,1.488,1.434,3.482,1.439c2.117,0.005,4.249,0.085,6.366,0.024c2.349-0.068,0.917-1.129-0.025-2.409
				c-2.188-2.971-4.212-6.37-6.79-9.013C288.697,68.536,284.884,69.416,280.951,69.416z M265.086,108.439
				c-0.1-0.792,0.009-4.523-0.566-5.104c-0.769-0.776-38.014-0.614-41.999-0.104c0.859,1.339,1.985,2.409,2.649,3.885
				c0.766,1.702,0.989,1.711,2.836,1.665c4.287-0.107,8.568-0.226,12.856-0.243c4.262-0.017,8.524-0.022,12.786-0.026
				C257.368,108.508,261.402,108.939,265.086,108.439z M214.658,102.022c-6.843,0-8.853,6.227-7.644,10.358
				c0.635,2.171,1.4,4.192,3.548,5.25c1.988,0.98,4.416,1.04,6.515,0.44c2.111-0.603,4.536-1.691,5.765-3.604
				c0.571-0.888,0.892-1.897,0.922-2.956C223.815,109.721,222.36,102.022,214.658,102.022z M275.075,110.367
				c-0.316,4.631,4.582,8.476,8.883,7.981c4.75-0.547,7.755-3.29,7.334-8.232c-0.173-2.038-0.421-4.408-1.884-5.967
				c-1.357-1.447-4.448-2.996-6.464-2.691C278.446,102.137,275.148,105.93,275.075,110.367z M291.702,103.241
				c0.427,1.268,1.116,2.277,1.351,3.645c0.294,1.712,0.219,1.973,2.03,1.984c1.756,0.01,7.466,0.793,8.164-0.774
				c0.243-0.545,0.006-3.422,0.006-4.027c0-1.086-1.248-0.876-2.686-0.87C297.623,103.211,294.641,103.058,291.702,103.241z
				 M206.812,102.879c-2.571-0.591-5.861-0.044-8.507-0.056c-1.062-0.005-2.108-0.368-2.48,0.675
				c-0.198,0.555-0.276,3.555-0.02,4.051c0.642,1.245,5.635,0.523,7.073,0.526c1.278,0.002,1.691,0.155,2.279-0.979
				C205.83,105.795,206.275,104.241,206.812,102.879z M275.718,102.858c-1.5,0.186-2.946,0.29-4.461,0.302
				c-0.856,0.007-3.292-0.437-4.022,0.05c-1.472,0.982-0.831,3.269-0.831,5.291c1.106,0,1.685,0,2.791,0c0.94,0,2.786,0.346,3.614,0
				C273.899,108.046,274.791,104.117,275.718,102.858z M299.803,92.553c-1.367,0-5.236,0.213-5.874,0.826
				c-1.829,1.757,1.044,3.106,2.368,3.25c1.284,0.139,5.93,0.61,6.698-0.338c0.229-0.283,0.339-2.79,0.119-3.188
				C302.657,92.275,301.17,92.553,299.803,92.553z M196.247,92.091c-0.734,0.498-0.481,1.347-0.469,2.266
				c0.009,0.735-0.159,1.405,0.443,1.834c0.571,0.407,2.743-0.055,3.378-0.087c1.212-0.062,2.437-0.085,3.645-0.194
				c1.46-0.133,1.512-0.788,1.41-2.314C204.485,91.063,196.612,91.843,196.247,92.091z M286.049,82.956
				c0.965-0.389,0.703-0.957,0.472-1.948c-0.388-1.67-1.118-3.615-3.008-4.003c-1.994-0.409-2.709,1.078-3.042,2.799
				c-0.142,0.736-0.522,2.433,0.079,2.994C281.071,83.285,285.83,83.044,286.049,82.956z M283.598,85.544
				c-2.931,0-2.923,0.434-2.902,1.463c0.031,1.518,0.54,3.363,2.131,3.824c2.003,0.58,3.251-1.078,3.556-2.831
				C286.83,85.436,285.893,85.544,283.598,85.544z"/>
			<path style="fill:#9FDAFE;" d="M219.297,110.157c-0.131,2.435-1.099,4.42-3.761,4.711c-2.613,0.285-5.174-1.688-5.151-4.38
				c0.019-2.234,1.351-4.872,3.724-5.3C216.37,104.778,219.884,107.732,219.297,110.157z M214.569,112.247
				c3.624-0.138,2.747-4.692-0.226-4.501C211.54,107.927,211.819,112.395,214.569,112.247z"/>
			<path style="fill:#9FDAFE;" d="M287.194,107.034c1.029,1.883,1.155,4.211-0.042,5.993c-0.813,1.211-2.092,2.035-3.769,1.991
				c-2.612-0.069-5.31-2.333-5.253-5.015c0.055-2.589,2.318-5.276,5-5.34C285.187,104.614,286.417,105.613,287.194,107.034z
				 M285.88,110.062c0.374-3.924-6.531-3.12-5.956,0.118C280.435,113.062,285.784,113.424,285.88,110.062z"/>
		</g>
	</g>
	<g>
		<g>
			<g>
				<g>
					<path style="fill:#8DA9B7;" d="M86.274,408.214v10.568h53.083l51.723,0l125.951,0c5.842,0,10.568-4.726,10.568-10.568
						L86.274,408.214z"/>
					<g>
						<rect x="115.048" y="367.932" style="fill:#9A9FA0;" width="100.695" height="40.282"/>
						<path style="fill:#A6AFB2;" d="M257.172,425.553l-32.431,0c-2.509,0-4.544-2.034-4.544-4.544v-2.226h41.519v2.226
							C261.716,423.519,259.682,425.553,257.172,425.553z"/>
						<path style="fill:#424242;" d="M86.274,418.782H72.105c-6.215,0-11.253-5.038-11.253-11.253l0-20.24
							c0-5.365,4.349-9.714,9.714-9.714h0l15.708,0L86.274,418.782z"/>
						<path style="fill:#A6AFB2;" d="M327.6,240.762v167.45H203.75c0-4.77-0.86-9.33-2.45-13.55c-5.49-14.6-19.57-24.98-36.08-24.98
							c-16.52,0-30.61,10.38-36.09,24.98c-1.59,4.22-2.46,8.78-2.46,13.55H80.05c-5.24,0-9.49-4.25-9.49-9.49v-157.96
							c0-4.76,3.86-8.62,8.62-8.62h239.8C323.74,232.142,327.6,236.002,327.6,240.762z"/>
						<path style="fill:#C4C6C6;" d="M283.03,366.412H70.56v-8.31h104.13c9.83,0,102.52-0.07,109.01-0.07
							c6.48,0,12.23-6.15,12.23-11.56C295.93,346.472,299.56,366.412,283.03,366.412z"/>
						<path style="opacity:0.2;fill:#FFFFFF;" d="M327.597,240.765v1.341l-257.033,0v-1.341c0-4.762,3.853-8.624,8.615-8.624
							l239.804,0C323.744,232.141,327.597,236.003,327.597,240.765z"/>
						<path style="fill:#9FDAFE;" d="M440.54,354.432v41.62c0,6.71-5.45,12.15-12.15,12.15H327.6v-111.42
							c0-0.22,0.01-0.44,0.02-0.66c0.34-5.56,4.96-9.97,10.62-9.97h61.57c4.63,0,8.88,2.6,10.98,6.73l1.65,3.24l18.85,37.13
							l0.11,0.22l4.96,9.76l2.85,5.63C440.08,350.582,440.54,352.492,440.54,354.432z"/>
						<path style="opacity:0.2;fill:#FFFFFF;" d="M412.44,296.122h-84.82c0.34-5.56,4.96-9.97,10.62-9.97h61.57
							c4.63,0,8.88,2.6,10.98,6.73L412.44,296.122z"/>
						<path style="fill:#86C9EA;" d="M436.355,343.231c-0.855,0.396-1.89,0.621-2.908,0.855c-7.282,1.674-14.646,3.232-22.117,3.691
							c-7.48,0.45-14.961,0.099-22.441,0.351c-4.204,0.135-8.354,0.72-12.566,0.738c-3.808,0.018-7.525-0.648-11.243-1.422
							c-5.734-1.179-10.145-3.115-14.124-7.489c-2.574-2.836-3.214-5.923-2.998-9.677c0.126-2.277,1.557-5.455,1.944-9.416
							c-0.189,1.809,0.54,3.988,0.972,5.671c0.459,1.827,1.143,3.583,2.755,4.735c1.854,1.323,4.474,1.341,6.679,1.656
							c4.159,0.594,8.336,0.09,12.557-0.027c3.898-0.108,7.894,0.207,11.819,0.405c1.908,0.099,3.799,0.495,5.698,0.567
							c3.466,0.135,7.03-0.387,10.496-0.414c3.133-0.027,6.391-0.225,9.524-0.432c1.755-0.117,3.538-0.558,5.302-0.558
							c1.674,0,3.358,0.405,5.032,0.54c1.881,0.153,3.763-0.171,5.653-0.081c1.512,0.072,2.988,0.396,4.492,0.531
							c0.162,0.009,0.333,0.018,0.522,0.018L436.355,343.231z"/>
						<path style="fill:#FFFFFF;" d="M431.287,333.248h-72.526c-6.382,0-9.02-5.203-9.02-8.191V305.91
							c0-6.868,7.147-9.785,9.227-9.785h53.47L431.287,333.248z"/>
						<path style="fill:#A6AFB2;" d="M383.173,314.703c-5.466,0-8.044,3.306-8.044,9.85c0,6.544,0,12.493,0,14.145
							c0,1.652,1.171,6.332,7.337,6.332s8.328-3.952,8.328-6.795c0-2.842-0.28-13.589-0.28-17.186
							C390.514,317.454,388.302,314.703,383.173,314.703z"/>
						<path style="opacity:0.2;fill:#FFFFFF;" d="M379.582,320.484c-0.937,4.903-1.323,10.142-0.719,15.133
							c0.163,1.344,0.358,3.181,1.548,4.068c1.401,1.044,2.634,0.411,3.437-0.93c2.039-3.407,1.992-8.449,1.801-12.32
							c-0.103-2.089-0.379-4.972-1.521-6.775C383.113,318.06,380.261,317.431,379.582,320.484z"/>
						<rect x="327.599" y="394.657" style="fill:#A6AFB2;" width="94.076" height="13.548"/>
						<path style="fill:#86C9EA;" d="M348.024,408.205h-9.821c0-20.605,16.698-37.303,37.303-37.303
							c20.605,0,37.303,16.698,37.303,37.303h-9.821"/>
						<path style="fill:#424242;" d="M440.543,389.679v6.373c0,6.706-5.446,12.152-12.152,12.152h-6.715v-12.368
							c0-3.403,2.755-6.157,6.148-6.157H440.543z"/>
						<path style="fill:#FFFFFF;" d="M440.542,381.864l-16.892,0c-2.824,0-5.114-2.29-5.114-5.114v-14.693
							c0-2.824,2.29-5.114,5.114-5.114h16.892V381.864z"/>
						<path style="fill:#C4C6C6;" d="M70.566,256.006l214.58,0c5.568,0,10.082,4.514,10.082,10.082l0,81.934
							c0,5.568-4.514,10.082-10.082,10.082l-214.58,0L70.566,256.006z"/>
						<path style="fill:#A6AFB2;" d="M83.743,278.305c-0.351,7.534-0.449,42.033-0.449,50.226c0,9.46,2.572,19.511,11.279,19.511
							s26.714,0.264,41.313,0.429c21.453,0.242,105.009,1.148,109.865,0.803c4.081-0.29,8.407,0.423,12.298-1.201
							c8.107-3.382,8.585-14.043,9.482-21.588c1.419-11.936,2.882-23.796,1.659-35.845c-0.604-5.952-0.871-15.543-4.902-20.291
							c-3.036-3.576-7.679-4.122-12.102-4.481c-10.892-0.885-81.279-1.323-105.578-1.314c-12.547,0.005-43.158,0.578-55.693,0.362
							C85.484,264.822,83.958,273.697,83.743,278.305z"/>
						<g>
							<g>
								<circle style="fill:#424242;" cx="375.505" cy="409.373" r="27.509"/>
								<circle style="fill:#6B6B6B;" cx="375.505" cy="409.373" r="15.273"/>
							</g>
							<g>
								<ellipse style="fill:#FFFFFF;" cx="374.966" cy="409.373" rx="8.053" ry="8.591"/>
							</g>
							<g>
								<path style="fill:#A6AFB2;" d="M383.02,409.372c0,4.75-3.61,8.59-8.05,8.59c-4.45,0-8.06-3.84-8.06-8.59
									c0-0.62,0.06-1.23,0.18-1.82c0.79,3.86,4.02,6.76,7.88,6.76c3.85,0,7.08-2.9,7.87-6.76
									C382.96,408.142,383.02,408.752,383.02,409.372z"/>
							</g>
						</g>
						<g>
							<g>
								<circle style="fill:#424242;" cx="165.216" cy="409.373" r="27.509"/>
								<circle style="fill:#6B6B6B;" cx="165.216" cy="409.373" r="15.273"/>
							</g>
							<g>
								<ellipse style="fill:#FFFFFF;" cx="164.561" cy="409.373" rx="7.936" ry="8.591"/>
							</g>
							<g>
								<path style="fill:#C4C6C6;" d="M172.5,409.372c0,4.75-3.56,8.59-7.94,8.59s-7.93-3.84-7.93-8.59c0-0.84,0.11-1.66,0.33-2.43
									c0.97,3.56,4,6.15,7.6,6.15s6.64-2.59,7.61-6.15C172.39,407.712,172.5,408.532,172.5,409.372z"/>
							</g>
						</g>
						<path style="fill:#C4C6C6;" d="M70.566,394.657l58.565,0c-1.593,4.222-2.457,8.786-2.457,13.557h-46.62
							c-5.239,0-9.488-4.249-9.488-9.488L70.566,394.657z"/>
						<path style="fill:#C4C6C6;" d="M327.599,394.657v13.557l-123.845,0c0-4.771-0.864-9.335-2.457-13.557L327.599,394.657z"/>
					</g>
				</g>
			</g>
			<g>
				<path d="M374.751,438.11c-9.511,0-18.52-4.927-23.773-12.829c-2.409-3.624-3.987-7.785-4.571-12.097
					c-0.209-1.541,0.219-3.168-0.926-3.718c-0.922-0.443-3.165,0-4.189,0c-2.966,0-5.899-0.158-8.863-0.235
					c-1.047-0.027-2.84-0.26-3.806,0.242c-1.146,0.595-0.818,1.828-1.32,3.262c-2.204,6.303-8.623,7.309-14.402,7.309
					c-10.685,0-21.37,0-32.055,0c-4.628,0-9.256,0-13.885,0c-0.77,0-1.542,0.016-2.312,0c-1.788-0.037-1.696-0.357-2.276,0.92
					c-0.897,1.973-0.407,3.68-2.625,5.042c-2.108,1.294-5.194,0.952-7.56,0.979c-3.161,0.036-6.321-0.061-9.481-0.119
					c-3.118-0.058-6.236-0.05-9.354-0.05c-2.455,0-4.912,0.026-7.367,0.008c-1.968-0.015-4.033,0.052-5.655-1.246
					c-2.071-1.657-1.297-3.564-1.986-5.633c-1.394,0-4.157,0.1-5.112,0.1c-3.15,0-6.301,0-9.451,0c-2.965,0-5.931,0-8.896,0
					c-2.24,0-3.55-0.568-4.629,1.783c-9.903,21.58-40.986,20.89-51.47,0.164c-1.217-2.406-1.982-1.989-4.576-1.948
					c-1.375,0.022-2.752,0-4.126,0c-5.596,0-11.193,0.001-16.789,0.001c-11.993,0.001-23.986,0.002-35.979,0.003
					c-5.142,0-10.648,0.309-14.597-3.628c-3.796-3.785-3.662-8.84-3.779-13.823c-0.137-5.851-1.222-12.937,0.573-18.605
					c0.75-2.368,2.314-4.428,4.373-5.805c1.358-0.908,4.485-1.235,4.937-2.391c0.131-0.336-0.099-1.644-0.111-2.175
					c-0.059-2.567,0-5.142,0-7.709c0-24.58,0-49.16,0-73.739c0-11.312,0-22.624,0-33.936c0-5.97-1.541-17.416,1.305-22.309
					c3.256-5.598,9.787-5.045,15.312-5.045c7.135,0,14.271,0,21.406,0c24.253,0,48.507,0,72.76,0c27.042,0,54.084,0,81.126,0
					c17.139,0,34.278,0,51.418,0c1.252,0,2.505-0.011,3.757,0c2.256,0.021,4.597,0.044,6.704,0.958
					c5.368,2.329,6.014,8.194,5.924,13.348c-0.194,11.164-0.158,22.328-0.158,33.495c0,3.601,0,7.202,0,10.803
					c4.751-6.122,14.607-4.594,21.597-4.594c9.652,0,19.304,0,28.956,0c6.563,0,13.191-0.254,19.751-0.007
					c10.14,0.383,13.342,8.592,17.273,16.336c7.665,15.096,15.329,30.192,22.994,45.288c3.929,7.738,2.373,16.572,2.373,24.989
					c0,4.801,0,9.602,0,14.403c0,4.691,0.659,9.717-0.723,14.245c-2.736,8.965-11.863,9.56-19.755,9.378
					c-4.769-0.11-9.541-0.058-14.311-0.058c-3.416,0-2.547,0.223-2.994,3.656c-0.627,4.821-2.519,9.478-5.416,13.379
					C392.618,433.759,383.777,438.11,374.751,438.11z M374.966,383.174c-24.532,0-35.472,31.939-16.058,46.901
					c17.89,13.788,44.701-1.061,42.069-23.654C399.456,393.355,388.153,383.174,374.966,383.174z M164.678,383.174
					c-24.532,0-35.472,31.939-16.058,46.901c17.89,13.788,44.7-1.061,42.068-23.654
					C189.167,393.355,177.865,383.174,164.678,383.174z M224.818,424.292c8.428,0.125,16.859,0,25.287,0
					c2.233,0,5.021,0.372,7.23-0.14c1.446-0.335,2.921-1.299,2.542-3.08c-0.344-1.616-1.37-1.079-2.99-1.029
					c-9.766,0.298-19.585,0-29.356,0c-1.614,0-3.224-0.096-4.833-0.105C218.528,419.914,221.753,424.54,224.818,424.292z
					 M68.71,378.926c-9.088,1.252-7.283,12.945-7.2,19.466c0.063,4.958-1.083,10.887,2.103,15.134
					c2.146,2.861,5.221,3.912,8.679,3.995c2.792,0.068,5.589-0.041,8.382,0c0.705,0.01,2.648,0.357,3.133,0.134
					c1.217-0.56,0.701-2.012,0.667-3.382c-0.027-1.096,0.559-4.166-0.347-4.837c-1.336-0.988-5.32,0.16-7.08-0.241
					c-4.626-1.053-7.688-4.993-8.344-9.562C67.763,393.097,68.71,385.577,68.71,378.926z M316.435,417.521
					c4.557,0,8.6-3.534,9.218-8.047c-15.471,0-30.943,0-46.414,0c-23.969,0-47.937,0-71.906,0c-3.615,0-7.231,0-10.846,0
					c-0.539,0-2.166-0.287-2.649,0c-1.156,0.687-1.096,6.259-1.625,8.047c36.336,0,72.671,0,109.007,0
					C306.291,417.521,311.363,417.521,316.435,417.521z M137.027,417.521c-0.401-1.357-0.593-7.489-1.429-8.047
					c-0.506-0.338-2.481,0-3.066,0c-3.919,0-7.838,0-11.758,0c-9.022,0-18.043,0-27.065,0c-0.822,0-1.65,0.027-2.471,0
					c-2.29-0.074-3.781-0.905-4.51,1.42c-0.278,0.885-0.383,6.112,0.261,6.627c0.283,0.226,1.78,0,2.096,0
					c8.506,0,17.012,0,25.519,0C122.078,417.521,129.553,417.521,137.027,417.521z M127.371,406.957
					c2.155,0.043,5.169,0.817,7.282,0.157c1.894-0.592,1.52-1.661,1.839-3.566c0.815-4.869,3.343-9.56,6.615-13.218
					c6.311-7.057,15.987-10.774,25.391-9.447c9.418,1.329,17.945,7.47,22.06,16.067c1.026,2.144,1.856,4.438,2.226,6.788
					c0.241,1.527-0.124,2.496,1.049,3.23c1.501,0.939,6.107-0.016,8.032-0.016c-0.706-20.9-19.226-37.365-40.016-35.887
					C143.178,372.393,128,388.27,127.371,406.957z M320.857,406.953c1.263,0,2.803,0.041,3.804,0.041
					c1.416,0,1.092-2.666,1.081-3.43c-0.028-1.922,0.89-6.669-0.781-7.343c-0.979-0.395-3.949-0.298-4.983-0.298
					c-8.555,0-17.111,0-25.666,0c-24.546,0-49.091,0-73.637,0c-6.069,0-12.138,0-18.206,0c0.87,2.67,1.455,5.432,1.741,8.225
					c0.034,0.336,0.061,2.662,0.29,2.806c0.305,0.191,1.131-0.055,1.483,0c2.275,0.353,4.88,0,7.181,0c9.126,0,18.252,0,27.377,0
					c21.619,0,43.239,0,64.858,0C310.553,406.953,315.705,406.953,320.857,406.953z M413.825,406.936
					c1.061,0.237,2.104,0.217,3.183,0.183c0.661-0.043,2.802,0.021,2.802-1.309c0-3.476-0.092-6.954,0.006-9.887
					c-2.786,0-5.572,0-8.358,0c0.872,2.592,1.537,5.33,1.746,8.063C413.273,404.89,412.76,406.945,413.825,406.936z
					 M422.356,406.891c5.523,0,11.027,0.482,14.365-4.93c1.525-2.473,1.915-5.251,2.01-8.101c0.107-3.213-0.721-2.914-3.911-2.931
					c-6.225-0.033-12.474-1.013-12.489,6.982C422.33,398.608,422.299,406.891,422.356,406.891z M72.466,395.746
					c-2.523,0-1.133,4.783-0.517,6.189c0.893,2.036,2.589,3.701,4.672,4.494c1.641,0.625,3.352,0.523,5.067,0.523
					c6.215,0,12.43,0,18.646,0c6.503,0,13.006,0,19.509,0c1.178,0,2.436,0.127,3.609,0c2.075-0.225,1.611-0.541,1.755-2.855
					c0.176-2.822,0.679-5.476,1.558-8.176C108.669,395.922,90.552,395.746,72.466,395.746z M344.924,406.944
					c1.839,0,1.57-1.09,1.926-2.862c0.502-2.496,0.936-4.629,2.042-6.958c1.798-3.786,4.444-7.155,7.672-9.827
					c6.798-5.627,16.05-7.967,24.678-5.979c8.441,1.944,15.726,7.857,19.534,15.615c0.915,1.864,1.63,3.831,2.117,5.85
					c0.281,1.167,0.263,3.677,1.033,4.161c1.283,0.807,5.433,0,7.005,0c-0.69-19.793-17.876-35.443-37.571-34.72
					c-18.507,0.68-33.828,16.272-34.472,34.72C340.901,406.944,342.912,406.944,344.924,406.944z M335.257,406.944
					c1.821,0,1.247-2.315,1.423-3.734c0.308-2.473,0.886-4.927,1.682-7.288c-2.616,0-5.202-0.094-7.81-0.178
					c-2.505-0.08-2.355-0.285-2.288,1.983c0.027,0.933,0,1.872,0,2.805c0,1.043-0.619,5.828,0.102,6.411
					C329.347,407.737,333.895,406.944,335.257,406.944z M337.643,287.412c-8.712,0-9.43,8.64-9.505,15.22
					c-0.095,8.235,0.116,16.47,0.126,24.705c0.006,4.703,0,9.406,0,14.108c0,16.026,0,32.051,0,48.077
					c0,0.83-0.291,3.483,0.252,4.003c0.686,0.657,6.664-0.004,7.781-0.01c3.481-0.018,3.136-0.414,4.709-3.582
					c7.411-14.924,25.346-22.698,41.375-19.519c7.637,1.515,14.706,5.325,20.135,10.908c2.599,2.673,4.808,5.708,6.543,9.009
					c1.39,2.644,1.35,3.141,4.329,3.07c1.777-0.042,3.612,0.17,5.38,0c0.365-0.035,1.153,0.21,1.425,0.057
					c0.786-0.443,1.44-2.618,2.314-3.332c3.309-2.704,9-1.764,13.026-1.555c1.263,0.066,2.491,0.475,3.22-0.571
					c0.303-0.435,0.072-2.964,0.009-3.437c-0.249-1.859-0.031-1.466-2.169-1.496c-3.801-0.052-7.606,0.018-11.407,0.035
					c-8.471,0.036-8.646-5.803-8.542-12.912c0.088-6.011-1.232-13.997,6.93-14.514c3.658-0.232,7.405,0.004,11.07,0.006
					c0.621,0,3.806,0.383,4.1,0.094c1.402-1.379-1.629-7.072-2.24-8.297c-1.565-3.142-3.179-6.26-4.768-9.39
					c-1.051-2.07-1.051-3.305-3.051-3.705c-2.991-0.597-6.724,0-9.766,0c-4.625,0-9.25,0-13.875,0c-3.501,0-7.002,0-10.503,0
					c-3.234,0-2.338,0.079-2.533,3.435c-0.388,6.684-7.544,11.287-13.565,7.456c-2.635-1.677-3.925-4.416-4.102-7.456
					c-0.054-0.931,0.35-2.97-0.25-3.435c-0.557-0.431-3.323,0-3.993,0c-2.28,0-4.56,0-6.841,0c-3.033,0-6.631,0.662-9.405-0.82
					c-7.579-4.051-5.261-15.975-5.261-23.059c0-3.591-0.403-7.36,1.6-10.551c2.199-3.504,5.841-4.881,9.802-4.931
					c15.128-0.192,30.27,0,45.4,0c1.497,0,2.994,0,4.491,0c-4.833-9.663-16.736-7.611-25.875-7.611c-12.239,0-24.478,0-36.717,0
					C344.076,287.412,340.859,287.412,337.643,287.412z M321.889,393.401c2.699,0,3.943,1.157,3.853-1.741
					c-0.01-0.337,0.006-0.675,0-1.012c-0.033-1.738,0-3.479,0-5.217c0-7.089,0-14.177,0-21.265c0-20.683,0-41.367,0-62.05
					c0-14.614,0-29.228,0-43.843c0-1.447,0-2.894,0.002-4.341c0.008-6.391,2.479-18.519-6.163-20.364
					c-3.799-0.811-8.329-0.332-12.203-0.351c-4.962-0.023-9.923,0.024-14.885,0.075c-5.071,0.052-10.141,0.106-15.212,0.109
					c-29.155,0.019-58.311,0-87.467,0c-34.985,0-69.971,0-104.956,0c-2.435,0-5.08-0.282-7.508,0.071
					c-8.129,1.183-6.317,13.549-6.341,19.444c-0.005,1.247-0.116,1.379,0.699,1.825c0.983,0.539,2.979,0.111,4.03,0.073
					c0.749-0.027,1.497-0.059,2.247-0.07c9.645-0.135,19.301,0,28.946,0c40.021,0,80.041,0,120.062,0c13.889,0,27.778,0,41.667,0
					c3.827,0,7.639-0.097,11.466-0.146c7.345-0.094,13.785,1.713,15.437,9.756c0.873,4.253,0.329,9.008,0.329,13.315
					c0,18.048,0.365,36.095,0.255,54.143c-0.03,4.884-0.053,9.774-0.218,14.656c-0.127,3.762-0.872,7.22-3.781,9.864
					c-3.57,3.245-8.075,3.04-12.571,3.029c-8.7-0.02-17.4,0-26.1,0c-40.042,0-80.084,0-120.126,0c-15.769,0-31.539,0-47.308,0
					c-3.398,0-6.805,0.075-10.203,0c-1.822-0.04-3.979-0.89-4.629,0.723c-0.85,2.11,0.019,6.421,0.019,8.633
					c0,4.998,0,9.997,0,14.995c0,1.641-0.884,8.739-0.099,9.714c0.125,0.249,5.315-0.027,5.577-0.027c4.128,0,8.256,0,12.384,0
					c9.767,0,19.534,0,29.3,0c2.405,0,4.829,0.091,7.233,0c1.974-0.075,1.966-0.053,2.939-2.008
					c2.107-4.234,4.667-8.061,8.035-11.403c12.403-12.305,32.137-14.829,47.401-6.439c7.294,4.009,13.412,10.459,16.796,18.094
					c0.917,2.069,1.254,1.785,3.202,1.756c5.382-0.08,10.772,0,16.154,0c19.77,0,39.54,0,59.31,0
					C293.605,393.401,307.747,393.401,321.889,393.401z M424.501,358.062c-7.041,0-5.374,8.073-5.423,13.048
					c-0.053,5.427-0.097,9.31,6.004,9.548c3.122,0.122,6.263,0.048,9.387,0.061c0.866,0.003,2.493,0.334,3.33-0.019
					c1.807-0.761,0.996-2.398,0.914-4.319c-0.096-2.245-0.028-4.503-0.028-6.749c0-3.073,0.706-7.081,0-10.055
					c-0.389-1.638-3.938-1.471-5.099-1.478C430.559,358.081,427.53,358.062,424.501,358.062z M71.147,356.954
					c17.472,0,35.01-0.112,52.503-0.112c30.793,0,61.587,0,92.38,0c17.743,0,35.486-0.007,53.229,0.008
					c5.144,0.004,10.623,0.565,15.704-0.117c6.113-0.82,8.375-5.335,8.451-11.01c0.079-5.934-0.044-11.878-0.044-17.814
					c0-13.886,0-27.771,0-41.657c0-5.468,0.02-10.936,0.009-16.404c-0.011-5.432-1.121-11.051-7.304-12.363
					c-6.579-1.396-14.379-0.256-21.071-0.228c-5.486,0.023-10.973,0.007-16.46,0.007c-27.262,0-54.525,0-81.787,0
					c-27.031,0-54.062,0-81.093,0c-3.24,0-6.479,0-9.719,0c-1.083,0-3.737-0.306-4.215,0.357c-0.664,0.92-0.521,3.994-0.5,5.177
					c0.029,1.707,0.036,3.426,0,5.133c-0.02,0.967,0.189,4.217,1.264,4.178c1.411-0.051,5.902,0,7.314,0c23.007,0,46.014,0,69.021,0
					c30.179,0,60.358,0,90.536,0c8.844,0,17.688,0,26.532,0c1.356,0,2.779-0.125,4.132,0c3.51,0.326,3.449,2.35-0.052,2.52
					c-0.477,0.023-0.961-0.001-1.438,0c-20.543,0.033-41.086,0-61.629,0c-30.712,0-61.425,0-92.137,0c-10.577,0-21.154,0-31.731,0
					c-2.552,0-5.106,0.032-7.657,0c-0.398-0.005-0.797,0.013-1.194,0c-1.724-0.055-2.534-0.54-3.019,1.047
					c-0.396,1.295,0.059,3.623,0.059,4.969c0,0.609-0.379,3.004-0.074,3.596c0.48,0.933,0.271,0.367,1.499,0.537
					c0.471,0.065,1.002,0.003,1.476,0c2.629-0.017,5.259,0,7.888,0c10.655,0,21.31,0,31.966,0c30.692,0,61.383,0,92.075,0
					c20.897,0,41.795,0,62.692,0c0.58,0,1.182-0.046,1.761,0c2.296,0.184,3.841,1.929,0.728,2.499
					c-1.24,0.227-2.695,0.021-3.941,0.021c-8.492,0-16.984,0-25.476,0c-29.769,0-59.537,0-89.306,0c-24.23,0-48.46,0-72.69,0
					c-1.969,0-3.944,0.047-5.913,0c-0.705-0.017-2.125-0.37-2.515-0.086c-0.501,0.365-0.704,5.999-0.463,8.789
					c0.074,0.855,0.785,1.511,1.643,1.511c22.535-0.002,45.101-0.065,67.645-0.065c36.078,0,72.156,0,108.234,0
					c5.292,0,10.585,0,15.877,0c2.138,0,4.681-0.382,6.796,0c2.605,0.47,2.336,1.895,0.003,2.324
					c-0.72,0.132-10.351,0.197-14.332,0.197c-34.413,0-68.827,0-103.24,0c-26.61,0-53.265,0.457-79.872,0
					c-0.764-0.013-1.809-0.171-2.497-0.075c-0.297,2.02-0.702,9.773,0.906,10.351c0.455,0.164,2.283-0.116,3.019-0.126
					c3.428-0.046,6.86,0,10.288,0c14.401,0,28.803,0,43.204,0c36.976,0,73.953,0,110.929,0c9.465,0,18.933-0.056,28.398,0
					c1.226,0.007,3.207-0.318,4.117,0.314c2.653,1.844-1.67,2.175-3.261,2.206c-2.806,0.054-5.619,0-8.426,0
					c-32.812,0-65.623,0-98.435,0c-28.15,0-56.313,0.251-84.462,0c-0.555-0.005-1.113,0.022-1.668,0
					c-0.905-0.036-1.813-0.204-2.72-0.206c-2.041-0.005-1.702-0.223-2.027,1.388c-0.363,1.8-0.295,7.304,0.685,8.09
					c1.781,1.427,9.126,0.879,12.217,0.879c12.088,0,24.176,0,36.265,0c36.88,0,73.76,0,110.64,0c10.187,0,20.373,0.016,30.56,0
					c0.851-0.001,1.701-0.006,2.552-0.014c1.188-0.011,7.937-0.847,8.751,0.723c1.12,2.161-4.649,1.852-5.73,1.857
					c-2.971,0.015-5.947-0.046-8.92-0.046c-31.493,0-62.987,0-94.48,0c-27.537,0-55.083,0.211-82.62,0
					c-3.152-0.024-6.298-0.533-9.448,0.007c-0.13,0.022-0.262,0.083-0.334,0.193c-0.587,0.891-0.125,3.325-0.072,4.232
					c0.111,1.909,0.108,3.804,0.108,5.717c26.716-0.001,53.433-0.001,80.149-0.002c30.122-0.001,60.245-0.003,90.367-0.002
					c8.385,0,16.781-0.06,25.164,0.192c1.002,0.03,4.665-0.393,5.491,0.394c1.479,1.41-1.889,1.891-3.09,1.941
					c-7.356,0.305-14.789,0-22.149,0c-37.501-0.001-75.002-0.001-112.504-0.002c-15.563,0-31.127,0-46.69-0.001
					c-3.717,0-7.435,0.031-11.151,0c-0.818-0.007-1.619-0.024-2.437-0.056c-3.723-0.147-3.276,0.001-3.149,3.463
					c0.059,1.617,0,3.247,0,4.865C71.23,346.672,71.258,356.954,71.147,356.954z M376.861,337.819c0,5.52,6.903,8.332,10.774,4.461
					c1.375-1.375,3.035-6.688,1.385-7.895c-0.577-0.422-2.922,0-3.701,0c-1.869,0-3.739,0-5.608,0c-0.349,0-2.532-0.256-2.796,0
					C376.508,334.779,376.861,337.152,376.861,337.819z M428.573,331.864c-3.368-6.632-6.688-13.289-10.032-19.933
					c-1.981-3.937-3.973-7.869-5.996-11.785c-0.708-1.371-0.807-2.189-2.027-2.603c-1.828-0.62-4.997,0-6.909,0
					c-3.924,0-7.848,0-11.772,0c-8.388,0-16.776,0-25.164,0c-5.615,0-13.494-1.166-15.317,6.014
					c-0.712,2.803-0.244,6.168-0.244,9.017c0,3.767-0.081,7.544,0,11.31c0.217,10.123,10.093,7.98,17.154,7.98
					c1.458,0,3.746,0.456,5.124,0c1.304-0.431,0.571,0.374,0.949-1.091c0.943-3.65-0.802-7.753,0.516-11.428
					c2.147-5.987,10.061-7.766,14.561-3.267c3.251,3.251,2.59,7.947,2.59,12.135c0,3.486-0.679,3.651,2.639,3.651
					c4.093,0,8.187,0,12.28,0C414.141,331.864,421.357,331.864,428.573,331.864z M389.485,331.864c0-3.553,0.815-8.122-0.322-11.536
					c-1.149-3.449-5.104-5.212-8.435-3.805c-2.769,1.17-3.712,3.638-3.867,6.437c-0.122,2.202,0,4.445,0,6.651
					c0,1.952-0.422,1.827,1.013,2.254c1.877,0.558,4.786,0,6.745,0C386.24,331.864,387.863,331.864,389.485,331.864z"/>
				<path d="M366.207,352.388c-2.842,0-6.515,0.416-9.021-1.202c-1.219-0.787-2.184-2.057-2.438-3.514
					c-0.199-1.145,0.098-3.433,1.739-2.366c1.033,0.672,0.729,2.438,1.613,3.381c1.344,1.434,3.688,1.191,5.471,1.2
					c1.124,0.006,5.04-0.689,5.888,0.112c0.853,0.807,0.26,2.388-1.001,2.388C367.706,352.351,366.961,352.388,366.207,352.388z"/>
				<path d="M164.23,425.819c-9.34,0-16.72-8.413-15.907-17.624c0.729-8.262,7.38-15.114,15.78-15.34
					c8.38-0.226,15.934,6.213,16.933,14.562C182.202,417.175,173.924,425.819,164.23,425.819
					C164.23,425.819,164.23,425.819,164.23,425.819z M164.277,395.438c-17.267,0-17.563,26.518-0.877,27.899
					c6.971,0.577,13.656-4.405,14.979-11.304C180.027,403.441,172.916,395.438,164.277,395.438z"/>
				<path d="M164.62,419.226c-12.75,0-12.587-19.704,0-19.704C177.197,399.521,177.389,419.226,164.62,419.226z M164.62,402.042
					c-8.632,0-9.554,13.449-1.075,14.596C173.442,417.978,174.503,402.042,164.62,402.042z"/>
				<path d="M374.518,425.819c-9.34,0-16.721-8.414-15.907-17.625c0.729-8.262,7.38-15.113,15.78-15.34
					c8.38-0.226,15.934,6.213,16.932,14.562C392.49,417.175,384.212,425.819,374.518,425.819
					C374.518,425.819,374.519,425.819,374.518,425.819z M374.566,395.439c-17.268,0-17.564,26.517-0.877,27.898
					c6.971,0.577,13.656-4.405,14.98-11.304C390.317,403.441,383.204,395.439,374.566,395.439z"/>
				<path d="M374.908,419.226c-12.75,0-12.587-19.704,0-19.704C387.486,399.521,387.677,419.226,374.908,419.226z M374.908,402.042
					c-8.632,0-9.554,13.449-1.075,14.596C383.73,417.978,384.791,402.042,374.908,402.042z"/>
				<path style="fill:#9FDAFE;" d="M357.216,323.178c-0.492,0.492-1.883,1.717-2.613,1.189c-1.166-0.843,1.537-3.333,2.019-3.826
					c2.174-2.224,4.403-4.396,6.594-6.603c1.878-1.892,3.745-3.795,5.63-5.682c2.392-2.395,4.699-4.953,7.208-7.219
					c0.789-0.713,2.367-2.5,3.002-0.682c0.5,1.433-2.555,3.607-3.316,4.368C369.576,310.887,363.38,317.016,357.216,323.178z"/>
				<path style="fill:#9FDAFE;" d="M423.157,372.896c-0.492,0.492-1.883,1.717-2.613,1.189c-1.166-0.843,7.128-9.356,9.637-11.622
					c0.789-0.713,2.367-2.5,3.002-0.682C433.682,363.213,429.321,366.734,423.157,372.896z"/>
				<path style="fill:#9FDAFE;" d="M428.929,373.099c-0.492,0.492-1.883,1.717-2.613,1.189c-1.166-0.843,1.768-4.014,4.277-6.28
					c0.789-0.713,2.863-2.709,3.628-1.892C435.236,367.201,432.127,369.894,428.929,373.099z"/>
				<path style="fill:#9FDAFE;" d="M365.55,323.039c-0.492,0.492-1.883,1.717-2.613,1.189c-1.163-0.841,1.526-3.322,2.009-3.816
					c1.822-1.863,3.699-3.671,5.524-5.531c0.599-0.61,1.167-1.203,1.781-1.826c2.146-2.177,4.25-4.478,6.514-6.524
					c0.789-0.713,2.367-2.499,3.002-0.682c0.49,1.403-2.446,3.498-3.196,4.248C374.243,314.423,369.878,318.712,365.55,323.039z"/>
			</g>
		</g>
		<g>
			<rect y="449.253" width="500" height="2.52"/>
			<rect y="456.555" width="500" height="2.52"/>
		</g>
	</g>
</g>
</svg>
